<svg width="155" height="49" viewBox="0 0 155 49" fill="none" xmlns="http://www.w3.org/2000/svg">
<rect width="155.007" height="48.2993" rx="13.4789" fill="#212121"/>
<path d="M22.8299 24.832H24.8593L29.2562 37.0081H27.3114L26.2122 33.7104H21.5616L20.4624 37.0081H18.5176L22.8299 24.832ZM21.9844 32.1884H25.6203L23.8446 26.8614L21.9844 32.1884Z" fill="white"/>
<path d="M31.2852 28.1222H33.1454V29.6442C33.6527 28.6296 34.6674 27.9531 35.9357 27.9531C38.2188 27.9531 39.6562 29.7288 39.6562 32.5192C39.6562 35.3095 38.2188 37.0852 35.9357 37.0852C34.6674 37.0852 33.6527 36.4087 33.1454 35.3941V39.8755H31.2852V28.1222ZM37.796 32.5192C37.796 30.6589 36.8659 29.4751 35.4284 29.4751C34.0755 29.4751 33.0608 30.6589 33.0608 32.5192C33.0608 34.3794 34.0755 35.5632 35.4284 35.5632C36.8659 35.5632 37.796 34.4639 37.796 32.5192Z" fill="white"/>
<path d="M41.9395 28.1222H43.7997V29.6442C44.307 28.6296 45.3217 27.9531 46.59 27.9531C48.8731 27.9531 50.3105 29.7288 50.3105 32.5192C50.3105 35.3095 48.8731 37.0852 46.59 37.0852C45.3217 37.0852 44.307 36.4087 43.7997 35.3941V39.8755H41.9395V28.1222ZM48.3657 32.5192C48.3657 30.6589 47.4356 29.4751 45.9981 29.4751C44.6453 29.4751 43.6306 30.6589 43.6306 32.5192C43.6306 34.3794 44.6453 35.5632 45.9981 35.5632C47.5202 35.5632 48.3657 34.4639 48.3657 32.5192Z" fill="white"/>
<path d="M56.5684 33.7051V33.6206H58.4286V33.7051C58.5977 34.8044 59.6969 35.5654 61.3881 35.5654C62.9946 35.5654 64.0093 34.8044 64.0093 33.7051C64.0093 32.6905 63.3328 32.1831 61.7263 31.8449L60.3734 31.5912C58.0058 31.0839 56.822 29.9847 56.822 28.209C56.822 26.0951 58.6823 24.7422 61.2189 24.7422C63.7556 24.7422 65.5313 26.0951 65.6159 28.209V28.3781H63.7556V28.2935C63.5865 27.1943 62.5718 26.5179 61.1344 26.5179C59.6124 26.5179 58.6823 27.2789 58.6823 28.2935C58.6823 29.2237 59.3587 29.731 60.8807 30.0692L62.2336 30.3229C64.7703 30.8302 65.8695 31.8449 65.8695 33.7897C65.8695 35.9882 64.0939 37.4256 61.2189 37.4256C58.5132 37.1719 56.7375 35.9036 56.5684 33.7051Z" fill="white"/>
<path d="M68.741 34.6376V29.5642H67.4727V28.1268H68.741V25.8438H70.6012V28.1268H72.2924V29.5642H70.6012V34.553C70.6012 35.4832 71.024 35.7368 71.785 35.7368C71.9541 35.7368 72.1232 35.7368 72.2924 35.7368V37.1743C72.1232 37.1743 71.7005 37.2588 71.3622 37.2588C69.5866 37.1743 68.741 36.4133 68.741 34.6376Z" fill="white"/>
<path d="M74.0684 32.5192C74.0684 29.6442 75.7595 27.9531 78.2962 27.9531C80.8328 27.9531 82.524 29.7288 82.524 32.5192C82.524 35.3941 80.8328 37.1697 78.2962 37.1697C75.6749 37.1697 74.0684 35.3941 74.0684 32.5192ZM80.5792 32.5192C80.5792 30.5744 79.6491 29.4751 78.2116 29.4751C76.7742 29.4751 75.844 30.5744 75.844 32.5192C75.844 34.4639 76.7742 35.6477 78.2116 35.6477C79.6491 35.6477 80.5792 34.4639 80.5792 32.5192Z" fill="white"/>
<path d="M84.7252 28.1222H86.5854V29.6442C86.8391 28.6296 87.6001 27.9531 88.6148 27.9531C88.8684 27.9531 89.1221 27.9531 89.2067 28.0377V29.7288C89.0375 29.6442 88.7839 29.6442 88.3611 29.6442C87.1773 29.6442 86.5009 30.4053 86.5009 31.7582V37.0852H84.6406V28.1222H84.7252Z" fill="white"/>
<path d="M90.4746 32.6037C90.4746 29.8134 92.0812 27.9531 94.5333 27.9531C96.9854 27.9531 98.5074 29.7288 98.5074 32.4346V33.0265H92.2503C92.2503 34.7176 93.1804 35.6477 94.6179 35.6477C95.7171 35.6477 96.3935 35.0558 96.6472 34.4639V34.3794H98.3383V34.4639C98.0847 35.9014 96.6472 37.1697 94.5333 37.1697C92.0812 37.1697 90.4746 35.3941 90.4746 32.6037ZM92.3348 31.7582H96.8163C96.6472 30.2361 95.8017 29.4751 94.6179 29.4751C93.4341 29.3906 92.504 30.2361 92.3348 31.7582Z" fill="white"/>
<path d="M135.799 22.3696C134.699 23.1306 133.854 23.9762 133.516 24.7372C133.093 25.4982 132.924 26.4283 132.924 27.3584C132.924 28.1195 133.008 28.7959 133.262 29.3878C133.516 29.9797 133.854 30.5716 134.277 31.1635C134.699 31.6708 135.46 32.2627 136.475 32.77C136.052 33.9538 135.46 35.1376 134.615 36.4059C133.769 37.6743 133.008 38.5199 132.332 39.0272C131.655 39.5345 130.979 39.7882 130.387 39.7882C129.88 39.7882 129.203 39.6191 128.358 39.2809L127.935 39.1117L127.259 38.8581C126.836 38.689 126.328 38.689 125.737 38.689C125.145 38.689 124.553 38.7735 123.792 39.0272L123.284 39.1963L122.692 39.45C122.185 39.6191 121.678 39.7036 121.17 39.7036C120.156 39.7036 118.972 38.9426 117.788 37.5052C116.604 36.0677 115.674 34.4612 115.082 32.77C114.491 31.0789 114.152 29.3878 114.152 27.6121C114.152 25.4137 114.744 23.5534 116.013 22.0314C117.281 20.5094 118.972 19.8329 121.17 19.8329C121.931 19.8329 122.693 20.0021 123.369 20.2557L123.876 20.4248L124.384 20.594C124.806 20.7631 125.145 20.8476 125.483 20.8476C125.906 20.8476 126.244 20.7631 126.667 20.594L127.343 20.3403L127.85 20.1712C128.611 19.9175 129.457 19.7484 130.387 19.7484C132.586 19.833 134.361 20.6785 135.799 22.3696ZM130.472 12.4766C130.472 12.8148 130.472 12.9839 130.472 13.153C130.472 13.9986 130.218 14.9287 129.711 15.7743C129.203 16.7044 128.527 17.3808 127.766 17.8882C126.92 18.3955 126.075 18.6492 125.145 18.6492C125.145 18.3109 125.06 18.0573 125.06 17.8882C125.06 17.1272 125.314 16.3661 125.737 15.6051C126.159 14.7596 126.751 14.0831 127.512 13.5758C128.273 12.9839 129.119 12.6457 130.049 12.4766C130.133 12.5611 130.303 12.4766 130.472 12.4766Z" fill="white"/>
<path d="M65.7919 15.5297L65.961 15.6143L65.8764 17.1363L65.7073 17.2209H64.6926C64.2699 18.9965 62.917 20.0112 60.8031 20.0112C58.3509 20.0112 56.998 18.6583 56.998 16.5444C56.998 15.3606 57.3363 14.2614 57.6745 13.5849L58.7737 14.0077C58.52 14.5996 58.2664 15.5297 58.2664 16.2062C58.2664 17.6436 59.2811 18.3201 60.8876 18.3201C62.4942 18.3201 63.5089 17.6436 63.5089 16.3753C63.5089 15.4452 63.2552 14.4305 62.917 13.1622L64.1853 12.8239C64.439 13.7541 64.6926 14.6842 64.6926 15.5297H65.7919ZM60.0421 11.8938C60.0421 11.471 60.3803 11.1328 60.8031 11.1328C61.2259 11.1328 61.5641 11.471 61.5641 11.8938C61.5641 12.3166 61.2259 12.6548 60.8031 12.6548C60.2957 12.6548 60.0421 12.3166 60.0421 11.8938Z" fill="white"/>
<path d="M72.2182 14.7639C72.2182 16.2859 71.2035 17.3006 69.5124 17.3006C68.3286 17.3006 67.5676 16.7933 67.3139 16.2014C66.9757 16.8778 66.3838 17.3006 65.5383 17.3006H65.3691L65.4537 15.694H65.6228C66.1301 15.694 66.722 15.6095 66.9757 14.8485C67.3985 12.9882 68.4977 12.0581 69.8506 12.0581C71.2881 11.889 72.2182 13.1574 72.2182 14.7639ZM71.119 14.8485C71.119 14.172 70.5271 13.5801 69.6815 13.5801C68.8359 13.5801 68.244 14.0875 67.9058 15.0176C68.1595 15.3558 68.6668 15.6095 69.5969 15.6095C70.6116 15.6095 71.119 15.2713 71.119 14.8485Z" fill="white"/>
<path d="M84.3952 15.6131L84.3106 17.2196H84.1415C83.465 17.2196 82.9577 17.0505 82.6195 16.7123C82.3658 18.8262 81.0975 20.01 78.9836 20.01C76.7006 20.01 75.3477 18.5725 75.3477 16.5432C75.3477 15.3594 75.6859 14.2602 76.0241 13.5837L77.1233 14.0065C76.8697 14.5984 76.616 15.5285 76.616 16.2049C76.616 17.6424 77.5461 18.4034 79.0681 18.4034C80.5056 18.4034 81.5203 17.6424 81.5203 16.2049V8.42578H82.8731V14.3447C82.8731 15.3594 83.2959 15.6131 84.2261 15.6131H84.3952Z" fill="white"/>
<path d="M83.8867 17.1292L83.9713 15.6072L84.1404 15.5226C85.0705 15.5226 85.4933 15.1844 85.4933 14.508C85.4933 13.9161 85.3242 12.9859 85.1551 12.2249L86.4234 11.8867C86.5925 12.6477 86.8462 13.5778 86.8462 14.4234C86.8462 16.1991 85.8315 17.2983 84.1404 17.2983L83.8867 17.1292ZM83.9713 18.7358C83.9713 18.3975 84.3095 18.0593 84.6477 18.0593C84.986 18.0593 85.3242 18.3975 85.3242 18.7358C85.3242 19.074 85.0705 19.4122 84.6477 19.4122C84.3095 19.4122 83.9713 19.1585 83.9713 18.7358ZM85.6624 18.7358C85.6624 18.3975 85.9161 18.0593 86.3389 18.0593C86.6771 18.0593 87.0153 18.3975 87.0153 18.7358C87.0153 19.074 86.6771 19.4122 86.3389 19.4122C85.9161 19.4122 85.6624 19.1585 85.6624 18.7358Z" fill="white"/>
<path d="M97.2499 15.6129L97.1654 17.2194H96.9962C95.6433 17.2194 94.7978 16.7966 94.6287 15.6129H92.092C92.092 15.6974 92.092 15.8665 92.092 15.9511C92.092 18.1495 90.7391 19.8407 88.6252 19.8407C88.1179 19.8407 87.6105 19.7561 87.4414 19.6715L87.526 18.1495C87.8642 18.1495 88.1178 18.2341 88.3715 18.2341C90.0626 18.2341 90.7391 17.1349 90.7391 16.2047C90.7391 15.2746 90.4009 14.1754 90.1472 12.7379L91.4155 12.3997C91.5847 12.9071 91.7538 13.499 91.8383 14.0908H94.375V12.1461H95.6433V14.3445C95.6433 15.4437 96.0661 15.6129 96.9117 15.6129H97.2499ZM89.9781 10.7086C89.9781 10.2858 90.3163 9.94759 90.7391 9.94759C91.1619 9.94759 91.5001 10.2858 91.5001 10.7086C91.5001 11.1314 91.1619 11.4696 90.7391 11.4696C90.3163 11.4696 89.9781 11.1314 89.9781 10.7086ZM94.2904 10.3704C94.2904 9.94759 94.6287 9.60938 95.0515 9.60938C95.4742 9.60938 95.8125 9.94759 95.8125 10.3704C95.8125 10.7932 95.4742 11.1314 95.0515 11.1314C94.6287 11.1314 94.2904 10.7932 94.2904 10.3704Z" fill="white"/>
<path d="M96.7402 17.1323L96.8248 15.6103L96.9939 15.5258C97.924 15.5258 98.3468 15.1876 98.3468 14.5111C98.3468 13.9192 98.1777 12.9891 98.0086 12.2281L99.2769 11.8899C99.446 12.6509 99.6997 13.581 99.6997 14.4265C99.6997 16.2022 98.685 17.3015 96.9939 17.3015L96.7402 17.1323ZM97.7549 9.69141C98.0931 9.69141 98.4314 10.0296 98.4314 10.3679C98.4314 10.7061 98.1777 11.0443 97.7549 11.0443C97.4167 11.0443 97.0785 10.7061 97.0785 10.3679C97.0785 10.0296 97.4167 9.69141 97.7549 9.69141ZM99.5306 9.69141C99.8688 9.69141 100.207 10.0296 100.207 10.3679C100.207 10.7061 99.8688 11.0443 99.5306 11.0443C99.1078 11.0443 98.8541 10.7061 98.8541 10.3679C98.7696 10.0296 99.1078 9.69141 99.5306 9.69141Z" fill="white"/>
</svg>
