<svg width="64" height="32" viewBox="0 0 64 32" fill="none" xmlns="http://www.w3.org/2000/svg">
<rect x="0.5" y="0.5" width="63" height="31" rx="1.5" stroke="#212121"/>
<path fill-rule="evenodd" clip-rule="evenodd" d="M18.2667 9.33203C18.4 10.0654 18.0667 10.7987 17.6667 11.332C17.2667 11.8654 16.5334 12.332 15.8 12.2654C15.6667 11.532 16 10.8654 16.4 10.332C16.8667 9.7987 17.6 9.3987 18.2667 9.33203ZM20.4 20.932C20.7334 20.3987 20.9334 20.0654 21.2 19.4654C19.1334 18.6654 18.8 15.732 20.8667 14.6654C20.2667 13.8654 19.4 13.4654 18.5334 13.4654C17.9334 13.4654 17.5334 13.5987 17.1334 13.732C16.8 13.8654 16.5334 13.932 16.2 13.932C15.8 13.932 15.5334 13.7987 15.1334 13.6654C14.7334 13.532 14.3334 13.3987 13.8667 13.3987C12.9334 13.3987 11.9334 13.932 11.3334 14.932C10.4667 16.2654 10.6 18.8654 12 20.9987C12.6 21.7987 13.2667 22.6654 14.1334 22.6654C14.5334 22.6654 14.7334 22.532 15 22.4654C15.3334 22.332 15.6667 22.1987 16.2 22.1987C16.8 22.1987 17.0667 22.332 17.4 22.4654C17.6667 22.5987 17.8667 22.6654 18.2667 22.6654C19.2 22.6654 19.8667 21.6654 20.4 20.932Z" fill="#212121" stroke="#212121" stroke-miterlimit="10" stroke-linecap="round" stroke-linejoin="round"/>
<path d="M35.2 13.86C35.2 14.7133 35.0467 15.5 34.74 16.22C34.4333 16.9267 33.9733 17.5 33.36 17.94C32.76 18.3667 32.0133 18.58 31.12 18.58H29.84C29.7733 18.58 29.7267 18.5933 29.7 18.62C29.6867 18.6467 29.68 18.6867 29.68 18.74V22.78C29.68 22.9267 29.5933 23 29.42 23H27.62C27.4733 23 27.4 22.9267 27.4 22.78V9.76C27.4 9.61333 27.4733 9.54 27.62 9.54H30.9C32.42 9.54 33.5133 9.89333 34.18 10.6C34.86 11.2933 35.2 12.38 35.2 13.86ZM29.68 16.72C29.68 16.84 29.7267 16.9 29.82 16.9H30.88C31.5467 16.9 32.0667 16.6333 32.44 16.1C32.8133 15.5667 33 14.8267 33 13.88C32.9867 12.88 32.7933 12.1733 32.42 11.76C32.06 11.3467 31.5333 11.14 30.84 11.14H29.82C29.7667 11.14 29.7267 11.1533 29.7 11.18C29.6867 11.1933 29.68 11.24 29.68 11.32V16.72ZM40.4833 23.14C39.8166 23.14 39.1899 23.0667 38.6033 22.92C38.0166 22.7733 37.5433 22.4867 37.1833 22.06C36.8366 21.62 36.6633 20.98 36.6633 20.14C36.6633 19.4467 36.7833 18.88 37.0233 18.44C37.2766 18 37.6033 17.6667 38.0033 17.44C38.4033 17.2 38.8166 17.0333 39.2433 16.94C39.6833 16.8467 40.0833 16.8 40.4433 16.8C40.7633 16.8 41.0699 16.8133 41.3633 16.84C41.6699 16.8667 41.9366 16.9 42.1633 16.94C42.3099 16.98 42.3833 16.88 42.3833 16.64C42.3833 16.0533 42.2166 15.64 41.8833 15.4C41.5499 15.16 41.0699 15.04 40.4433 15.04C39.9366 15.04 39.4499 15.1333 38.9833 15.32C38.5299 15.4933 38.1499 15.66 37.8433 15.82C37.7099 15.8867 37.6166 15.9133 37.5633 15.9C37.5233 15.8733 37.4966 15.8 37.4833 15.68L37.3233 14.66C37.3099 14.5267 37.3099 14.4333 37.3233 14.38C37.3499 14.3267 37.4166 14.2667 37.5233 14.2C37.8566 13.9867 38.2833 13.8133 38.8033 13.68C39.3233 13.5333 39.8833 13.46 40.4833 13.46C41.3766 13.46 42.0833 13.56 42.6033 13.76C43.1366 13.96 43.5366 14.2333 43.8033 14.58C44.0699 14.9267 44.2499 15.32 44.3433 15.76C44.4366 16.2 44.4833 16.66 44.4833 17.14C44.4833 17.74 44.4766 18.3133 44.4633 18.86C44.4633 19.4067 44.4499 19.9467 44.4233 20.48C44.4099 21.0133 44.3766 21.5533 44.3233 22.1C44.2966 22.2467 44.2566 22.36 44.2033 22.44C44.1499 22.5067 44.0366 22.5733 43.8633 22.64C43.6766 22.7333 43.4299 22.8133 43.1233 22.88C42.8299 22.9333 42.5166 22.98 42.1833 23.02C41.8499 23.06 41.5299 23.0867 41.2233 23.1C40.9299 23.1267 40.6833 23.14 40.4833 23.14ZM40.6033 21.78C40.7233 21.78 40.8633 21.7733 41.0233 21.76C41.1833 21.7467 41.3433 21.72 41.5033 21.68C41.6766 21.6267 41.8166 21.5667 41.9233 21.5C42.0433 21.42 42.1099 21.32 42.1233 21.2C42.1633 20.8533 42.1966 20.4667 42.2233 20.04C42.2499 19.6 42.2566 19.1867 42.2433 18.8C42.2433 18.6 42.1699 18.4667 42.0233 18.4C41.8766 18.32 41.6566 18.2667 41.3633 18.24C41.0833 18.2133 40.8166 18.2 40.5633 18.2C40.4033 18.2 40.2233 18.2267 40.0233 18.28C39.8233 18.3333 39.6299 18.4267 39.4433 18.56C39.2699 18.6933 39.1233 18.8867 39.0033 19.14C38.8833 19.3933 38.8233 19.7267 38.8233 20.14C38.8233 20.4867 38.8966 20.7867 39.0433 21.04C39.1899 21.28 39.3966 21.4667 39.6633 21.6C39.9299 21.72 40.2433 21.78 40.6033 21.78ZM48.0164 21.1C47.7364 20.62 47.4764 20.0867 47.2364 19.5C46.9964 18.9 46.7764 18.28 46.5764 17.64C46.3764 16.9867 46.2031 16.3467 46.0564 15.72C45.9231 15.08 45.8031 14.4733 45.6964 13.9C45.6564 13.6733 45.7297 13.56 45.9164 13.56H47.6364C47.7564 13.56 47.8431 13.5933 47.8964 13.66C47.9631 13.7133 48.0031 13.8333 48.0164 14.02C48.0431 14.2467 48.0897 14.5467 48.1564 14.92C48.2231 15.28 48.3097 15.6667 48.4164 16.08C48.5231 16.4933 48.6297 16.92 48.7364 17.36C48.8564 17.7867 48.9764 18.1867 49.0964 18.56C49.2297 18.9333 49.3564 19.2533 49.4764 19.52C49.5297 19.6133 49.5831 19.66 49.6364 19.66C49.6897 19.66 49.7231 19.62 49.7364 19.54C49.8697 19.18 50.0097 18.7733 50.1564 18.32C50.3031 17.8533 50.4497 17.3667 50.5964 16.86C50.7431 16.34 50.8697 15.8267 50.9764 15.32C51.0964 14.8133 51.1897 14.3333 51.2564 13.88C51.2697 13.76 51.2964 13.68 51.3364 13.64C51.3897 13.5867 51.4764 13.56 51.5964 13.56H53.0964C53.2031 13.56 53.2831 13.58 53.3364 13.62C53.4031 13.66 53.4231 13.7667 53.3964 13.94C53.3164 14.4467 53.2164 14.94 53.0964 15.42C52.9897 15.8867 52.8631 16.3667 52.7164 16.86C52.5697 17.3533 52.4031 17.8933 52.2164 18.48C52.0697 18.8933 51.8897 19.3933 51.6764 19.98C51.4631 20.5667 51.2031 21.1733 50.8964 21.8C50.5897 22.4267 50.2231 23.0133 49.7964 23.56C49.3831 24.1067 48.8897 24.5467 48.3164 24.88C47.7564 25.2267 47.1164 25.4 46.3964 25.4C46.0897 25.4 45.8231 25.38 45.5964 25.34C45.3697 25.3 45.1764 25.2467 45.0164 25.18C44.7764 25.06 44.7031 24.8933 44.7964 24.68L45.2364 23.84C45.2764 23.7333 45.3231 23.68 45.3764 23.68C45.4297 23.68 45.5031 23.6933 45.5964 23.72C45.8497 23.7733 46.1231 23.7667 46.4164 23.7C46.7097 23.6333 46.9764 23.52 47.2164 23.36C47.4697 23.2133 47.6631 23.0667 47.7964 22.92C47.9431 22.76 48.0631 22.5867 48.1564 22.4C48.2364 22.2 48.2564 21.9867 48.2164 21.76C48.1897 21.5333 48.1231 21.3133 48.0164 21.1Z" fill="#212121"/>
</svg>
