<svg width="123" height="141" viewBox="0 0 123 141" fill="none" xmlns="http://www.w3.org/2000/svg">
<g id="&#60;Group&#62;">
<path id="&#60;Path&#62;" d="M101.855 29.2932L101.851 29.3616L101.873 29.5351L101.869 29.6036C101.862 29.6948 101.856 29.7861 101.85 29.8774C101.844 29.9686 101.826 30.0592 101.797 30.1489L101.795 30.1831L101.793 30.2173C101.788 30.2858 101.771 30.3649 101.742 30.4546C101.713 30.5443 101.684 30.634 101.655 30.7238L101.616 30.7899L101.57 30.9587L101.531 31.0248C101.502 31.1145 101.463 31.1921 101.412 31.2574L101.371 31.3578C101.332 31.4239 101.296 31.4558 101.259 31.4877L101.255 31.5562C101.204 31.6215 101.154 31.6869 101.104 31.7522L101.031 31.816C100.98 31.8814 100.931 31.9353 100.882 31.9779C100.832 32.0432 100.782 32.0972 100.734 32.1397L100.661 32.2035C100.587 32.2673 100.526 32.3205 100.478 32.363C100.429 32.4055 100.37 32.4359 100.3 32.4541L100.227 32.5179C100.155 32.5588 100.084 32.5884 100.014 32.6066L99.9776 32.6385C99.9533 32.6598 99.9175 32.6803 99.8703 32.7L99.8361 32.6976L99.8019 32.6953C95.496 34.3283 91.6686 36.5096 88.5367 39.082C85.4025 41.6887 82.9319 44.6498 80.9997 47.7851C80.4531 48.7451 79.2667 48.4926 78.2529 47.2203C77.2367 45.9822 76.8465 44.1333 77.5347 43.1141C80.0681 39.2288 83.4089 35.6046 87.639 32.5567C83.0334 33.0346 78.55 34.243 74.2667 36.0494C69.9834 37.8559 65.9344 40.2629 62.1974 43.138C54.7258 48.854 48.4478 56.2329 43.3259 64.3092C38.2383 72.3879 34.2336 81.2278 31.4106 90.3887C28.5876 99.5496 26.9392 109.134 27.0551 118.563C27.0671 119.905 25.7489 121.088 24.0578 121.179C22.3667 121.271 20.8963 120.139 20.8936 118.661C20.7674 108.371 22.5533 98.28 25.5162 88.5784C28.4768 78.9111 32.7194 69.606 38.1181 60.9983C43.5486 52.4272 50.2403 44.5263 58.4726 38.243C62.5704 35.1173 67.0534 32.396 71.8664 30.3848C76.6475 28.3371 81.7951 26.9675 87.0238 26.4288C81.6614 24.3796 75.5518 23.208 69.167 23.0493C67.4852 23.0039 66.0629 21.6694 66.1107 19.9534C66.1243 18.2351 67.7007 16.7948 69.5536 16.8519C75.5915 17.0558 81.4367 18.0719 86.6807 19.838C91.9909 21.6429 96.7046 24.1294 100.731 27.1193L100.763 27.1559C100.797 27.1582 100.829 27.1947 100.861 27.2313L100.927 27.2702C100.969 27.3189 101.023 27.3684 101.089 27.4187L101.153 27.4918C101.195 27.5406 101.237 27.6007 101.278 27.6723C101.343 27.7225 101.396 27.7835 101.437 27.855L101.465 27.96C101.506 28.0316 101.547 28.1031 101.588 28.1747C101.607 28.2219 101.638 28.2812 101.679 28.3528L101.706 28.4578C101.722 28.5506 101.74 28.632 101.758 28.702L101.788 28.7728C101.785 28.807 101.817 28.8436 101.813 28.9121L101.84 29.0171C101.856 29.1099 101.862 29.2019 101.855 29.2932Z" fill="#FE5000"/>
</g>
</svg>
