<svg width="144" height="144" viewBox="0 0 144 144" fill="none" xmlns="http://www.w3.org/2000/svg">
<g id="Frame">
<g id="Group">
<path id="Vector" d="M99.8991 4.5C82.7991 4.5 68.9616 18.225 68.3991 35.8875C67.9491 52.2 83.5866 73.6875 92.9241 84.9375C94.6116 86.9625 97.1991 88.2 99.8991 88.2C102.599 88.2 105.074 86.9625 106.874 84.9375C116.212 73.575 131.962 52.2 131.399 35.8875C130.837 18.225 116.999 4.5 99.8991 4.5ZM99.8991 47.25C93.7116 47.25 88.6491 42.1875 88.6491 36C88.6491 29.8125 93.7116 24.75 99.8991 24.75C106.087 24.75 111.149 29.8125 111.149 36C111.149 42.1875 106.087 47.25 99.8991 47.25ZM12.5991 111.825C13.0491 113.175 14.3991 114.075 15.7491 114.075C16.0866 114.075 16.5366 113.963 16.8741 113.85L45.4491 103.5L59.2866 141.525C59.7366 142.875 61.0866 143.775 62.4366 143.775C62.7741 143.775 63.2241 143.663 63.5616 143.55C65.3616 142.875 66.2616 140.963 65.5866 139.275L50.6241 97.875L38.6991 65.1375C38.0241 63.3375 36.1116 62.4375 34.4241 63.1125C32.6241 63.7875 31.7241 65.7 32.3991 67.3875L43.1991 96.975L14.6241 107.325C12.8241 108.113 11.9241 110.025 12.5991 111.825ZM61.8741 66.2625L54.4491 68.9625L51.4116 60.525C50.7366 58.725 48.8241 57.825 47.1366 58.5C45.3366 59.175 44.4366 61.0875 45.1116 62.775L49.2741 74.475C49.7241 75.825 51.0741 76.725 52.4241 76.725C52.7616 76.725 53.2116 76.6125 53.5491 76.5L64.1241 72.675C65.9241 72 66.8241 70.0875 66.1491 68.4C65.4741 66.7125 63.5616 65.7 61.8741 66.2625Z" fill="#E56B54"/>
<path id="Vector_2" d="M53.8869 87.0766L71.9994 136.689C72.4494 138.039 73.7994 138.939 75.1494 138.939C75.4869 138.939 75.9369 138.827 76.2744 138.714C78.0744 138.039 78.9744 136.127 78.2994 134.439L70.9869 114.302L106.874 101.252L109.574 108.677C110.024 110.027 111.374 110.927 112.724 110.927C113.062 110.927 113.512 110.814 113.849 110.702C115.649 110.027 116.549 108.114 115.874 106.427L113.174 99.0016L120.599 96.3016C122.399 95.6266 123.299 93.7141 122.624 92.0266C121.949 90.2266 120.037 89.3266 118.349 90.0016L107.774 93.8266L68.7369 108.114L61.4244 87.9766L74.0244 83.2516C75.8244 82.5766 76.6119 80.6641 76.0494 78.8641C75.3744 77.0641 73.4619 76.2766 71.6619 76.8391L55.7994 82.6891C55.5496 82.7881 54.5619 83.2111 54.0073 84.3192C53.3491 85.6287 53.8093 86.8752 53.8869 87.0766Z" fill="#ADD180"/>
</g>
</g>
</svg>
