<svg width="164" height="106" viewBox="0 0 164 106" fill="none" xmlns="http://www.w3.org/2000/svg">
<path d="M37.5425 48H10.4575C4.70588 48 0 43.2941 0 37.5425V10.4575C0 4.70588 4.70588 0 10.4575 0H37.5425C43.2941 0 48 4.70588 48 10.4575V37.5425C48 43.2941 43.2941 48 37.5425 48Z" fill="#EBC7CC"/>
<path d="M95.5196 48H68.4804C62.6114 48 58 43.2941 58 37.5425V10.4575C58 4.70588 62.6114 0 68.4804 0H95.5196C101.389 0 106 4.70588 106 10.4575V37.5425C106 43.2941 101.389 48 95.5196 48Z" fill="#E56B54"/>
<path d="M153.542 48H126.458C120.706 48 116 43.2941 116 37.5425V10.4575C116 4.70588 120.706 0 126.458 0H153.542C159.294 0 164 4.70588 164 10.4575V37.5425C164 43.2941 159.294 48 153.542 48Z" fill="#EBBF57"/>
<path d="M37.5425 106H10.4575C4.70588 106 0 101.294 0 95.5425V68.4575C0 62.7059 4.70588 58 10.4575 58H37.5425C43.2941 58 48 62.7059 48 68.4575V95.5425C48 101.294 43.2941 106 37.5425 106Z" fill="#7D5475"/>
<path d="M95.5196 106H68.4804C62.6114 106 58 101.294 58 95.5425V68.4575C58 62.7059 62.6114 58 68.4804 58H95.5196C101.389 58 106 62.7059 106 68.4575V95.5425C106 101.294 101.389 106 95.5196 106Z" fill="#4F878F"/>
<path d="M153.542 106H126.458C120.706 106 116 101.294 116 95.5425V68.4575C116 62.7059 120.706 58 126.458 58H153.542C159.294 58 164 62.7059 164 68.4575V95.5425C164 101.294 159.294 106 153.542 106Z" fill="#ADD180"/>
</svg>
