<svg width="147" height="171" viewBox="0 0 147 171" fill="none" xmlns="http://www.w3.org/2000/svg">
<g id="Group 26396">
<path id="&#60;Path&#62;" d="M134.453 99.4428C120.242 132.864 81.7753 148.451 48.2698 134.348C14.86 120.233 -0.738373 81.6699 13.3765 48.26C27.4914 14.8501 66.0543 -0.748176 99.4642 13.3667C132.874 27.4816 148.568 66.0329 134.453 99.4428Z" fill="#E56B54"/>
<g id="&#60;Group&#62;">
<g id="&#60;Group&#62;_2">
<g id="&#60;Group&#62;_3">
<path id="&#60;Compound Path&#62;" d="M26.8916 152.846L50.7972 75.8787L46.4451 74.3658L17.9007 149.854C17.0296 152.287 18.3421 155.135 20.8699 155.995C23.3978 156.854 26.1392 155.458 26.8916 152.846Z" fill="white"/>
</g>
</g>
<path id="&#60;Path&#62;_2" d="M67.5546 68.4315C63.6081 79.9618 53.6874 86.9741 45.4958 84.1776C37.2085 81.3926 33.6677 69.6965 37.6142 58.1662C41.5606 46.636 51.4815 39.6236 59.6731 42.4201C67.9718 45.3007 71.501 56.9013 67.5546 68.4315Z" fill="white"/>
</g>
<g id="&#60;Group&#62;_4">
<g id="&#60;Group&#62;_5">
<g id="&#60;Group&#62;_6">
<path id="&#60;Compound Path&#62;_2" d="M142.756 157.607L101.265 88.4119L97.2656 90.6386L134.483 162.191C135.738 164.561 138.66 165.47 141.019 164.12C143.294 162.876 144.096 159.871 142.756 157.607Z" fill="white"/>
</g>
</g>
<g id="&#60;Group&#62;_7">
<g id="&#60;Group&#62;_8">
<path id="&#60;Path&#62;_3" d="M93.2269 60.7633L101.128 74.8442C101.637 75.8497 101.297 77.0543 100.291 77.5632C99.3927 78.1562 98.0925 77.8278 97.5836 76.8222L88.5925 60.933C88.3208 60.2868 87.6057 59.985 86.9365 60.0655C85.8009 60.2991 85.2583 61.4312 85.7671 62.4367L94.8998 78.6968C95.3857 79.5111 95.0227 80.5246 94.2084 81.0105L93.6694 81.3662C92.8435 81.7565 91.8416 81.4892 91.3673 80.7704L82.4487 64.6786C81.8327 63.5889 80.2687 63.4862 79.5118 64.45C79.0914 64.9855 79.0879 65.7617 79.4552 66.3964L88.4692 82.4768C88.848 83.2071 88.5692 84.1134 87.9461 84.5763L86.9405 85.0852C86.3058 85.4525 85.3039 85.1851 84.9251 84.4549L77.0244 70.374C76.7642 69.8234 75.9153 70.0226 75.7932 70.6191C75.137 75.6439 76.2325 81.5247 79.3124 86.9728C85.2466 97.6051 96.2343 102.684 103.873 98.4673C111.5 94.1554 112.858 82.0638 106.84 71.5385C103.618 65.7196 98.9554 61.6257 94.0678 59.6924C93.4598 59.4746 92.8596 60.1287 93.2269 60.7633Z" fill="white"/>
</g>
</g>
</g>
</g>
</svg>
