<svg width="169" height="108" viewBox="0 0 169 108" fill="none" xmlns="http://www.w3.org/2000/svg">
<g id="Frame 1321315003">
<g id="&#60;Clip Group&#62;">
<path id="&#60;Path&#62;" d="M41.0714 31H11.0936C5.44117 31 1 26.4949 1 20.7611V11.2389C1 5.60751 5.44117 1 11.0936 1H41.0714C46.6229 1 51.165 5.60751 51.165 11.2389V20.7611C51.165 26.4949 46.6229 31 41.0714 31Z" stroke="#CA6351" stroke-miterlimit="10"/>
<path id="&#60;Path&#62;_2" d="M99.3236 31H69.2544C63.7047 31 59.1641 26.4949 59.1641 20.7611V11.2389C59.1641 5.60751 63.7047 1 69.2544 1H99.3236C104.873 1 109.414 5.60751 109.414 11.2389V20.7611C109.414 26.4949 104.873 31 99.3236 31Z" fill="white"/>
<path id="&#60;Path&#62;_3" d="M157.574 31H127.504C121.955 31 117.414 26.4949 117.414 20.7611V11.2389C117.414 5.60751 121.955 1 127.504 1H157.574C163.123 1 167.664 5.60751 167.664 11.2389V20.7611C167.664 26.4949 163.123 31 157.574 31Z" fill="#E56B54"/>
<path id="&#60;Path&#62;_4" d="M41.0714 69H11.0936C5.44117 69 1 64.3925 1 58.7611V49.2389C1 43.6075 5.44117 39 11.0936 39H41.0714C46.6229 39 51.165 43.6075 51.165 49.2389V58.7611C51.165 64.3925 46.6229 69 41.0714 69Z" stroke="#CA6351" stroke-miterlimit="10"/>
<path id="&#60;Path&#62;_5" d="M99.3236 69H69.2544C63.7047 69 59.1641 64.3925 59.1641 58.7611V49.2389C59.1641 43.6075 63.7047 39 69.2544 39H99.3236C104.873 39 109.414 43.6075 109.414 49.2389V58.7611C109.414 64.3925 104.873 69 99.3236 69Z" fill="white"/>
<path id="&#60;Path&#62;_6" d="M157.574 69H127.504C121.955 69 117.414 64.3925 117.414 58.7611V49.2389C117.414 43.6075 121.955 39 127.504 39H157.574C163.123 39 167.664 43.6075 167.664 49.2389V58.7611C167.664 64.3925 163.123 69 157.574 69Z" stroke="#CA6351" stroke-miterlimit="10"/>
<path id="&#60;Path&#62;_7" d="M41.0714 107H11.0936C5.44117 107 1 102.495 1 96.7611V87.2389C1 81.6075 5.44117 77 11.0936 77H41.0714C46.6229 77 51.165 81.6075 51.165 87.2389V96.7611C51.165 102.495 46.6229 107 41.0714 107Z" fill="#E56B54"/>
<path id="&#60;Path&#62;_8" d="M99.3236 107H69.2544C63.7047 107 59.1641 102.495 59.1641 96.7611V87.2389C59.1641 81.6075 63.7047 77 69.2544 77H99.3236C104.873 77 109.414 81.6075 109.414 87.2389V96.7611C109.414 102.495 104.873 107 99.3236 107Z" stroke="#CA6351" stroke-miterlimit="10"/>
<path id="&#60;Path&#62;_9" d="M157.574 107H127.504C121.955 107 117.414 102.495 117.414 96.7611V87.2389C117.414 81.6075 121.955 77 127.504 77H157.574C163.123 77 167.664 81.6075 167.664 87.2389V96.7611C167.664 102.495 163.123 107 157.574 107Z" fill="white"/>
</g>
</g>
</svg>
