<svg width="213" height="212" viewBox="0 0 213 212" fill="none" xmlns="http://www.w3.org/2000/svg">
<g id="vuesax/linear/gift">
<g id="gift">
<path id="Vector" d="M176.902 88.332H35.5684V158.999C35.5684 185.499 44.4017 194.332 70.9017 194.332H141.568C168.068 194.332 176.902 185.499 176.902 158.999V88.332Z" fill="#FE9666" stroke="#FE5000" stroke-width="6" stroke-miterlimit="10" stroke-linecap="round" stroke-linejoin="round"/>
<path id="Vector_2" d="M190.419 61.8405V70.6738C190.419 80.3905 185.738 88.3405 172.753 88.3405H40.2526C26.7376 88.3405 22.5859 80.3905 22.5859 70.6738V61.8405C22.5859 52.1238 26.7376 44.1738 40.2526 44.1738H172.753C185.738 44.1738 190.419 52.1238 190.419 61.8405Z" fill="#FE9666" stroke="#FE5000" stroke-width="6" stroke-miterlimit="10" stroke-linecap="round" stroke-linejoin="round"/>
<path id="Vector_3" d="M103.311 44.1654H54.5514C51.5481 40.8971 51.6364 35.8621 54.8164 32.6821L67.3598 20.1388C70.6281 16.8704 76.0164 16.8704 79.2848 20.1388L103.311 44.1654Z" stroke="#FE5000" stroke-width="6" stroke-miterlimit="10" stroke-linecap="round" stroke-linejoin="round"/>
<path id="Vector_4" d="M158.356 44.1654H109.596L133.622 20.1388C136.891 16.8704 142.279 16.8704 145.547 20.1388L158.091 32.6821C161.271 35.8621 161.359 40.8971 158.356 44.1654Z" stroke="#FE5000" stroke-width="6" stroke-miterlimit="10" stroke-linecap="round" stroke-linejoin="round"/>
<path id="Vector_5" d="M79.4648 88.332V133.735C79.4648 140.802 87.2382 144.954 93.1565 141.155L101.46 135.679C104.463 133.735 108.262 133.735 111.177 135.679L119.038 140.979C124.868 144.865 132.73 140.714 132.73 133.647V88.332H79.4648Z" fill="#FE7333" stroke="#FE5000" stroke-width="6" stroke-miterlimit="10" stroke-linecap="round" stroke-linejoin="round"/>
</g>
</g>
</svg>
