<svg width="32" height="32" viewBox="0 0 32 32" fill="none" xmlns="http://www.w3.org/2000/svg">
<path d="M28.7983 13.5998H16.265V18.5332H23.5983C23.465 19.7332 22.665 21.5998 20.9316 22.7998C19.865 23.5998 18.265 24.1332 16.265 24.1332C12.7983 24.1332 9.73164 21.8665 8.66497 18.5332C8.39831 17.7332 8.26497 16.7998 8.26497 15.8665C8.26497 14.9332 8.39831 13.9998 8.66497 13.1998C8.79831 12.9332 8.79831 12.6665 8.93164 12.5332C10.1316 9.73317 12.9316 7.73317 16.265 7.73317C18.7983 7.73317 20.3983 8.79984 21.465 9.73317L25.1983 5.99984C22.9316 3.99984 19.865 2.6665 16.265 2.6665C11.065 2.6665 6.53164 5.59984 4.39831 9.99984C3.46497 11.8665 2.93164 13.8665 2.93164 15.9998C2.93164 18.1332 3.46497 20.1332 4.39831 21.9998C6.53164 26.3998 11.065 29.3332 16.265 29.3332C19.865 29.3332 22.9316 28.1332 25.065 26.1332C27.5983 23.8665 29.065 20.3998 29.065 16.2665C29.065 15.1998 28.9316 14.3998 28.7983 13.5998Z" stroke="black" stroke-width="2" stroke-miterlimit="10" stroke-linecap="round" stroke-linejoin="round"/>
</svg>
