<svg width="155" height="49" viewBox="0 0 155 49" fill="none" xmlns="http://www.w3.org/2000/svg">
<rect x="-0.0078125" width="155.007" height="48.2993" rx="13.4789" fill="#212121"/>
<path d="M78.1284 27.109C76.9446 27.109 75.93 27.5318 75.169 28.2928C74.4079 29.0538 73.9852 30.0685 73.9852 31.2522C73.9852 32.5206 74.4925 33.5353 75.3381 34.2963C76.0991 34.9727 77.0292 35.3109 78.1284 35.3109C79.1431 35.3109 80.0732 34.9727 80.7497 34.3808C81.6798 33.6198 82.1871 32.5206 82.1871 31.2522C82.1871 30.2376 81.8489 29.392 81.3416 28.7156C80.6651 27.7009 79.4813 27.109 78.1284 27.109ZM78.1284 33.7044C76.8601 33.7044 75.8454 32.6897 75.8454 31.2522C75.8454 29.8148 76.9446 28.8001 78.1284 28.8001C79.3122 28.8001 80.4114 29.8148 80.4114 31.2522C80.4114 32.6897 79.3968 33.7044 78.1284 33.7044ZM69.1655 27.109C68.3199 27.109 67.5589 27.3627 66.8825 27.7854C65.7832 28.4619 65.1068 29.7302 65.1068 31.2522C65.1068 32.436 65.5296 33.4507 66.2906 34.2117C67.0516 34.9727 68.0663 35.3955 69.1655 35.3955C70.0956 35.3955 70.9412 35.0573 71.7022 34.5499C72.7168 33.7889 73.3087 32.6897 73.3087 31.2522C73.3087 30.4912 73.1396 29.7302 72.7168 29.1383C71.9558 27.87 70.6875 27.109 69.1655 27.109ZM69.1655 33.7044C67.8971 33.7044 66.8825 32.6897 66.8825 31.2522C66.8825 29.8148 67.9817 28.8001 69.1655 28.8001C70.4338 28.8001 71.4485 29.8148 71.4485 31.2522C71.4485 32.6897 70.3493 33.7044 69.1655 33.7044ZM58.4268 28.3773V30.153H60.6253H62.5701C62.4855 31.1677 62.1473 31.8441 61.64 32.3515C61.0481 32.9434 60.118 33.6198 58.4268 33.6198C55.8902 33.6198 53.8608 31.5905 53.8608 28.9692C53.8608 26.4325 55.8902 24.3186 58.4268 24.3186C59.7797 24.3186 60.7944 24.826 61.5554 25.587L62.8238 24.3186C61.8091 23.304 60.3716 22.543 58.4268 22.543C57.2431 22.543 56.1438 22.8812 55.1292 23.4731C53.2689 24.5723 51.916 26.6017 51.916 28.9692C51.916 31.3368 53.2689 33.4507 55.2983 34.5499C56.2284 35.0573 57.3276 35.3109 58.4268 35.3109C60.2871 35.3109 61.7245 34.7191 62.9083 33.5353C64.0921 32.3515 64.4303 30.7449 64.4303 29.4766C64.4303 29.0538 64.4303 28.7156 64.3458 28.3773H61.3018H58.4268ZM102.142 29.7302C101.804 28.8001 100.789 27.109 98.591 27.109C97.6609 27.109 96.8153 27.4472 96.1389 27.9546C95.2933 28.7156 94.7014 29.8148 94.7014 31.1677C94.7014 33.4507 96.4771 35.2264 98.7601 35.2264C100.62 35.2264 101.72 34.0426 102.142 33.4507L100.705 32.5206C100.198 33.197 99.6057 33.6198 98.6756 33.6198C97.7455 33.6198 97.069 33.197 96.6462 32.3515L102.142 30.0685V29.7302ZM96.5617 31.0831C96.4771 29.4766 97.83 28.7156 98.6756 28.7156C99.352 28.7156 100.028 29.0538 100.198 29.5611L98.2528 30.3221L96.5617 31.0831ZM92.0802 35.0573H93.8559V23.0503H92.0802V35.0573ZM89.1207 28.0391C88.6134 27.5318 87.8524 27.109 86.9223 27.109C85.9922 27.109 85.062 27.5318 84.3856 28.1237C83.54 28.8847 83.0327 29.9839 83.0327 31.2522C83.0327 32.6897 83.7937 33.958 84.8084 34.6345C85.4003 35.0573 86.1613 35.3109 86.9223 35.3109C87.9369 35.3109 88.6979 34.8882 89.1207 34.3808H89.2053V34.9727C89.2053 36.5793 88.3597 37.3403 87.0068 37.3403C85.9076 37.3403 85.2311 36.5793 84.9775 35.9028L83.3709 36.5793C83.7937 37.6785 84.9775 39.0314 87.0068 39.0314C89.1207 39.0314 90.8964 37.7631 90.8964 34.719V27.3627H89.2053V28.0391H89.1207ZM87.0914 33.7044C85.823 33.7044 84.8084 32.6897 84.8084 31.2522C84.8084 29.8148 85.823 28.7156 87.0914 28.7156C88.3597 28.7156 89.2898 29.7302 89.2898 31.2522C89.2898 32.6897 88.2752 33.7044 87.0914 33.7044ZM110.598 23.0503H106.286V35.1418H108.061V30.5758H110.598C111.782 30.5758 112.881 30.0685 113.642 29.2229C114.234 28.631 114.572 27.7854 114.572 26.7708C114.572 25.8407 114.234 24.9951 113.642 24.4032C112.881 23.4731 111.697 23.0503 110.598 23.0503ZM110.598 28.8001H108.061V24.6569H110.598C111.951 24.6569 112.712 25.7561 112.712 26.6862C112.712 27.7009 111.951 28.8001 110.598 28.8001ZM121.759 27.109C120.491 27.109 119.138 27.7009 118.546 28.9692L120.153 29.6457C120.491 28.9692 121.168 28.8001 121.759 28.8001C122.69 28.8001 123.62 29.392 123.62 30.3221V30.4067C123.281 30.2376 122.605 29.8993 121.759 29.8993C120.998 29.8993 120.237 30.0685 119.646 30.4067C118.8 30.8295 118.293 31.5905 118.293 32.6051C118.293 33.4507 118.715 34.2117 119.307 34.6345C119.815 35.0573 120.491 35.2264 121.252 35.2264C122.436 35.2264 123.112 34.7191 123.535 34.0426H123.62V34.9727H125.395V32.0978V30.3221C125.395 29.0538 124.803 28.1237 123.958 27.5318C123.366 27.2781 122.605 27.109 121.759 27.109ZM121.506 33.7044C120.914 33.7044 120.068 33.4507 120.068 32.6897C120.068 31.7596 121.083 31.4214 122.013 31.4214C122.774 31.4214 123.197 31.5905 123.62 31.8441C123.535 32.9434 122.52 33.7044 121.506 33.7044ZM131.737 27.3627L130.891 29.5611L129.708 32.6051H129.623L127.509 27.3627H125.564L127.086 30.914L128.778 34.719L126.917 38.7777H128.778L132.244 30.7449L133.682 27.4472H131.737V27.3627ZM115.502 35.0573H117.278V23.0503H115.502V35.0573Z" fill="white"/>
<path d="M38.3025 20.1773L34.3283 24.0669L22.7441 12.3136C23.336 11.9754 24.0971 11.8908 24.7735 12.3136L38.3025 20.1773Z" fill="white"/>
<path d="M38.4713 29.4806L24.8578 37.4288C24.0122 37.9362 23.0821 37.6825 22.4902 37.1752L34.4127 25.4219L38.4713 29.4806Z" fill="white"/>
<path d="M42.9542 26.5194L39.0646 28.8024L35.0059 24.6591L38.98 20.7695L42.9542 23.1371C44.3071 23.8981 44.3071 25.7583 42.9542 26.5194Z" fill="white"/>
<path d="M21.8985 36.4974C21.5603 36.1592 21.3066 35.6518 21.3066 35.06V14.5974C21.3066 13.8364 21.6449 13.2445 22.2368 12.9062L33.8209 24.6596L21.8985 36.4974Z" fill="white"/>
<path d="M79.8206 15.1828L79.9898 15.2673L79.9052 16.5357L79.7361 16.6202H78.8905C78.5523 18.0577 77.4531 18.9033 75.6774 18.9033C73.648 18.9033 72.5488 17.7195 72.5488 16.0283C72.5488 15.0137 72.8025 14.1681 73.1407 13.5762L74.0708 13.9144C73.8172 14.4218 73.648 15.1828 73.648 15.7747C73.648 16.9585 74.4936 17.5504 75.8465 17.5504C77.1994 17.5504 78.045 16.9585 78.045 15.9438C78.045 15.1828 77.7913 14.3372 77.5376 13.3226L78.6369 13.0689C78.8905 13.8299 79.0596 14.5909 79.0596 15.3519H79.8206V15.1828ZM75.0855 12.1388C75.0855 11.8005 75.3392 11.5469 75.762 11.5469C76.1002 11.5469 76.3539 11.8005 76.3539 12.1388C76.3539 12.477 76.1002 12.7307 75.762 12.7307C75.3392 12.8152 75.0855 12.477 75.0855 12.1388Z" fill="white"/>
<path d="M85.3162 14.5018C85.3162 15.7701 84.4707 16.6157 83.0332 16.6157C82.1031 16.6157 81.4266 16.1929 81.173 15.6855C80.9193 16.2774 80.412 16.6157 79.7355 16.6157H79.5664L79.651 15.2628H79.8201C80.2428 15.2628 80.6656 15.1782 80.9193 14.5863C81.2575 13.0643 82.1876 12.2188 83.2869 12.2188C84.4707 12.2187 85.3162 13.2334 85.3162 14.5018ZM84.3016 14.5863C84.3016 13.9944 83.7942 13.5716 83.1178 13.5716C82.4413 13.5716 81.934 13.9944 81.6803 14.7554C81.8494 15.0091 82.2722 15.2628 83.1178 15.2628C83.8788 15.2628 84.3016 15.0091 84.3016 14.5863Z" fill="white"/>
<path d="M93.3488 15.2678L93.2643 16.6207H93.0952C91.9114 16.6207 91.3195 16.0288 91.1504 15.0141C90.8967 15.5214 90.4739 15.9442 89.6284 15.9442C88.4446 15.9442 87.6836 15.1832 87.6836 14.084C87.6836 12.8157 88.5291 11.8855 90.9813 11.3782V10.6172H91.996V14.1685C91.996 15.0141 92.4187 15.1832 93.0952 15.1832L93.3488 15.2678ZM91.0658 14.1685V12.562C89.2902 12.9002 88.6983 13.4075 88.6983 13.8303C88.6983 14.2531 89.2056 14.5068 89.7975 14.5068C90.3894 14.5913 90.8122 14.3377 91.0658 14.1685Z" fill="white"/>
<path d="M96.7308 15.2646L96.6463 16.6175H96.4771C95.6316 16.6175 94.9551 16.2793 94.7015 15.6028C94.4478 16.1947 93.9405 16.6175 93.0949 16.6175H92.9258L93.0103 15.2646H93.1795C93.9405 15.2646 94.3632 15.0955 94.3632 14.25V12.8125H95.4625V14.25C95.4625 15.1801 95.8007 15.3492 96.5617 15.3492L96.7308 15.2646ZM94.7015 17.8859C94.7015 18.2241 94.4478 18.4778 94.1096 18.4778C93.7714 18.4778 93.5177 18.2241 93.5177 17.8859C93.5177 17.5476 93.7714 17.294 94.1096 17.294C94.4478 17.294 94.7015 17.5476 94.7015 17.8859ZM96.1389 17.8859C96.1389 18.2241 95.8853 18.4778 95.547 18.4778C95.2088 18.4778 94.9551 18.2241 94.9551 17.8859C94.9551 17.5476 95.2088 17.294 95.547 17.294C95.8853 17.294 96.1389 17.5476 96.1389 17.8859Z" fill="white"/>
<path d="M100.03 15.2705L99.9451 16.6234H99.776C98.8458 16.6234 98.2539 16.2852 98.0003 15.6087C97.8312 16.2006 97.2393 16.6234 96.3937 16.6234H96.2246L96.3091 15.2705H96.4783C97.2393 15.2705 97.5775 15.1014 97.5775 14.2558V9.35156H98.6767V14.2558C98.6767 15.1859 99.0149 15.3551 99.776 15.3551L100.03 15.2705Z" fill="white"/>
<path d="M105.103 15.1828V16.5357H99.8605L99.6914 16.4511L99.776 15.1828L99.9451 15.0982H101.044C100.706 14.76 100.537 14.4218 100.537 13.8299C100.537 12.6461 101.383 11.5469 102.905 11.5469C103.919 11.5469 104.511 12.1388 104.765 12.5615L104.173 13.4917C103.919 13.238 103.412 12.8998 102.82 12.8998C102.059 12.8998 101.552 13.4071 101.552 13.999C101.552 14.76 102.313 15.0982 102.989 15.0982H105.103V15.1828Z" fill="white"/>
<path d="M114.91 15.2652L114.826 16.6181H114.657C114.149 16.6181 113.726 16.449 113.388 16.1953C113.219 17.8864 112.12 18.9011 110.344 18.9011C108.399 18.9011 107.385 17.7173 107.385 16.0262C107.385 15.0115 107.638 14.166 107.977 13.5741L108.907 13.9123C108.653 14.4196 108.484 15.1807 108.484 15.7725C108.484 16.9563 109.245 17.5482 110.513 17.5482C111.697 17.5482 112.543 16.9563 112.543 15.688V9.26172H113.642V14.166C113.642 15.0115 113.98 15.1806 114.741 15.1806L114.91 15.2652Z" fill="white"/>
<path d="M124.633 15.2651L124.549 16.618H124.379C123.618 16.618 123.196 16.4488 122.942 16.0261C122.435 16.3643 121.758 16.618 120.744 16.618H117.784C117.023 16.618 116.516 16.2797 116.262 15.6878C116.093 16.3643 115.501 16.618 114.655 16.618H114.486L114.571 15.2651H114.74C115.416 15.2651 115.839 15.0959 115.839 14.3349V13.2357H116.938V14.3349C116.938 14.9268 117.192 15.0959 117.53 15.1805C118.714 13.0666 120.067 11.8828 121.589 11.8828C122.942 11.8828 123.788 13.0666 123.788 14.2504C123.788 14.5886 123.703 14.8423 123.618 15.0959C123.787 15.1805 124.041 15.1805 124.464 15.1805L124.633 15.2651ZM120.997 15.1805C122.096 15.1805 122.857 14.9268 122.857 14.3349C122.857 13.8276 122.35 13.2357 121.42 13.2357C120.236 13.2357 119.137 14.0813 118.376 15.1805H120.997Z" fill="white"/>
<path d="M131.654 13.2371L131.569 14.6745H129.794C127.511 16.2811 126.242 16.6193 124.382 16.6193H124.213L124.297 15.2664H124.467C125.65 15.2664 126.919 15.1819 129.033 14.1672C128.863 14.0827 128.694 13.9981 128.61 13.9135C128.018 13.6599 127.426 13.3216 126.665 13.3216C125.989 13.3216 125.481 13.5753 125.228 13.7444L124.805 12.8143C125.058 12.4761 125.819 11.9688 126.75 11.9688C127.764 11.9688 128.356 12.3915 128.948 12.7297C129.794 13.1525 129.963 13.2371 130.639 13.2371H131.654Z" fill="white"/>
<path d="M132.582 16.6181V9.26172H133.681V16.6181H132.582Z" fill="white"/>
</svg>
