<svg width="16" height="16" viewBox="0 0 16 16" fill="none" xmlns="http://www.w3.org/2000/svg">
<path d="M11.125 1.74951H4.875C3.14911 1.74951 1.75 3.14862 1.75 4.87451V11.1245C1.75 12.8504 3.14911 14.2495 4.875 14.2495H11.125C12.8509 14.2495 14.25 12.8504 14.25 11.1245V4.87451C14.25 3.14862 12.8509 1.74951 11.125 1.74951Z" fill="#E3DEDC"/>
<path d="M10.5003 7.60644C10.5774 8.12659 10.4886 8.65782 10.2464 9.12457C10.0042 9.59132 9.62102 9.96982 9.15132 10.2062C8.68162 10.4426 8.14934 10.5249 7.63017 10.4414C7.11101 10.3579 6.63141 10.1127 6.25958 9.74091C5.88775 9.36909 5.64264 8.88948 5.5591 8.37032C5.47556 7.85116 5.55785 7.31887 5.79426 6.84917C6.03067 6.37947 6.40917 5.99628 6.87592 5.75409C7.34267 5.5119 7.8739 5.42306 8.39406 5.50019C8.92463 5.57887 9.41584 5.8261 9.79511 6.20538C10.1744 6.58466 10.4216 7.07586 10.5003 7.60644Z" fill="#3A3A3A"/>
<path d="M11.4385 4.56201H11.4447" stroke="#3A3A3A" stroke-width="2" stroke-linecap="round" stroke-linejoin="round"/>
</svg>
