<svg width="203" height="48" viewBox="0 0 203 48" fill="none" xmlns="http://www.w3.org/2000/svg">
<g id="Frame" clip-path="url(#clip0_3634_17416)">
<g id="Group">
<path id="Vector" d="M43.0058 32.5154C43.0058 34.0316 42.1929 35.438 40.8767 36.1993L26.1154 44.7219C24.7993 45.4832 23.18 45.4832 21.8638 44.7219L7.10254 36.1993C5.78642 35.438 4.97996 34.038 4.97996 32.5154V15.4638C4.97996 13.9477 5.79287 12.5413 7.10254 11.78L21.8703 3.26384C23.1864 2.50255 24.8058 2.50255 26.1219 3.26384L40.8896 11.7864C42.2058 12.5477 43.0187 13.9477 43.0187 15.4703V32.5154H43.0058ZM45.709 6.17996C45.2122 4.26384 43.7154 2.76706 41.7993 2.27029C30.1154 -0.761971 17.8574 -0.761971 6.17351 2.27029C4.26383 2.76706 2.76706 4.26384 2.27029 6.17996C-0.761971 17.8574 -0.761971 30.1219 2.27029 41.8058C2.76706 43.7219 4.26383 45.2187 6.17351 45.709C17.8509 48.7412 30.1154 48.7412 41.7993 45.709C43.7154 45.2122 45.2122 43.7154 45.709 41.8058C48.7412 30.1219 48.7412 17.8574 45.709 6.17996Z" fill="#212121"/>
<path id="Vector_2" d="M43.1415 32.5553C43.1415 34.0714 42.335 35.4714 41.0189 36.2327L26.277 44.7488C24.9608 45.5037 23.3479 45.5037 22.0318 44.7488L7.28988 36.2327C5.97375 35.4714 5.1673 34.0714 5.1673 32.5553V15.5359C5.1673 14.0198 5.97375 12.6198 7.28988 11.8585L22.0318 3.34884C23.3479 2.58755 24.9608 2.58755 26.277 3.34884L41.0189 11.8585C42.335 12.6198 43.1415 14.0198 43.1415 15.5359V32.5553ZM45.8447 6.25852C45.3479 4.34884 43.8576 2.85207 41.9415 2.35529C30.277 -0.670514 18.0318 -0.670514 6.3673 2.35529C4.45762 2.85207 2.96085 4.34884 2.47053 6.25852C-0.55528 17.923 -0.55528 30.1682 2.47053 41.8327C2.9673 43.7424 4.45762 45.2392 6.37375 45.7359C18.0383 48.7617 30.2834 48.7617 41.9479 45.7359C43.8576 45.2392 45.3544 43.7488 45.8512 41.8327C48.8705 30.1682 48.8705 17.923 45.8447 6.25852Z" fill="#212121"/>
<path id="Vector_3" d="M84.2698 16.7135H90.7214V44.5587H84.2698V16.7135ZM87.5279 5.28125C89.9021 5.28125 91.6827 7.00383 91.6827 9.37802C91.6827 11.6425 89.9021 13.3651 87.5279 13.3651C85.1537 13.3651 83.373 11.6425 83.373 9.37802C83.373 7.01028 85.1537 5.28125 87.5279 5.28125Z" fill="#212121"/>
<path id="Vector_4" d="M99.7999 34.684V22.1228H94.7031V16.7163H99.7999V6.71631L106.252 6.01953V16.7163H114.271V22.1228H106.252V33.9228C106.252 37.5292 107.935 38.9808 111.774 38.9808C112.645 38.9808 113.632 38.9228 114.677 38.7486V44.5615C113.284 44.7357 111.832 44.8518 110.664 44.8518C103.522 44.8582 99.7999 41.6582 99.7999 34.684Z" fill="#212121"/>
<path id="Vector_5" d="M124.788 3.87109H118.336V44.5679H124.788V3.87109Z" fill="#212121"/>
<path id="Vector_6" d="M143.831 39.1009C149.528 39.1009 153.598 35.0299 153.598 29.159C153.598 23.288 149.528 19.217 143.831 19.217C138.192 19.217 134.121 23.288 134.121 29.159C134.121 35.0299 138.192 39.1009 143.831 39.1009ZM127.547 29.159C127.547 19.7977 133.998 13.1719 143.011 13.1719C147.315 13.1719 151.037 14.6816 153.708 17.3009L153.824 13.7525H159.928V44.5654H153.824L153.708 40.959C151.037 43.6364 147.315 45.1461 143.011 45.1461C133.889 45.1461 127.547 38.4041 127.547 29.159Z" fill="#212121"/>
<path id="Vector_7" d="M179.884 39.1034C185.581 39.1034 189.652 35.0324 189.652 29.1614C189.652 23.2904 185.581 19.2195 179.884 19.2195C174.129 19.2195 170.058 23.2904 170.058 29.1614C170.058 35.0324 174.129 39.1034 179.884 39.1034ZM169.942 40.9034L169.826 44.5679H163.723V3.87109H170.174V17.1872C172.845 14.6324 176.51 13.1743 180.755 13.1743C189.768 13.1743 196.161 19.8582 196.161 29.1614C196.161 38.3485 189.884 45.1485 180.755 45.1485C176.394 45.1485 172.613 43.5743 169.942 40.9034Z" fill="#212121"/>
<path id="Vector_8" d="M65.7619 44.5402V22.237H61.207V16.7209H65.7554C65.7554 16.2434 65.7619 12.5402 65.749 12.0951C65.7232 11.0047 65.8974 9.94022 66.2199 8.90797C66.949 6.55313 68.4393 4.88216 70.6909 3.88861C72.0199 3.30151 73.4135 3.04345 74.8522 2.90797C76.6844 2.74022 78.5103 2.94022 80.3296 3.0628C80.4974 3.07571 80.6006 3.10151 80.6006 3.30797C80.5941 4.90797 80.6006 6.50151 80.6006 8.09506C80.6006 8.12087 80.5812 8.14668 80.5619 8.21764C80.0909 8.19184 79.6135 8.17893 79.1361 8.12732C78.007 7.99829 76.8715 7.97248 75.749 8.17248C75.1554 8.27571 74.5554 8.44345 74.0135 8.70151C72.9812 9.19829 72.4522 10.1144 72.2909 11.2176C72.1877 11.9144 72.2006 15.8951 72.1748 16.6047C72.1748 16.6564 72.2844 16.7531 72.349 16.7531C72.6006 16.7725 72.8522 16.766 73.1038 16.766C75.3038 16.766 77.5038 16.766 79.6974 16.766C79.7425 16.766 79.7941 16.766 79.8457 16.766C80.2845 16.7725 80.2845 16.7725 80.2845 17.2112C80.2845 18.8047 80.2845 20.4047 80.2845 21.9983C80.2845 22.0564 80.278 22.1144 80.2715 22.2112H72.278C72.2651 22.3209 72.2457 22.3918 72.2457 22.4693C72.2457 30.7918 72.2457 35.8628 72.2522 44.1854C72.2522 44.4757 72.1812 44.566 71.878 44.566C69.9296 44.5531 67.9877 44.566 66.0393 44.566C65.9554 44.5531 65.8715 44.5467 65.7619 44.5402Z" fill="#212121"/>
<path id="Vector_9" d="M198.891 6.71454H199.536C199.904 6.71454 200.052 6.44357 200.052 6.17906C200.052 5.91454 199.904 5.63712 199.542 5.63712H198.884V6.71454H198.891ZM199.775 7.05648L200.471 8.06938H200.026L199.342 7.08228H198.897V8.06938H198.497V5.25648H199.562C200.181 5.25648 200.458 5.68873 200.458 6.15325C200.446 6.63067 200.246 6.9597 199.775 7.05648ZM201.813 6.65003C201.813 5.30809 200.742 4.20486 199.4 4.20486C198.052 4.20486 196.987 5.30809 196.987 6.65003C196.987 7.99196 198.052 9.08228 199.4 9.08228C200.742 9.08228 201.813 7.99196 201.813 6.65003ZM202.194 6.65003C202.194 8.20486 200.955 9.46938 199.4 9.46938C197.846 9.46938 196.613 8.20486 196.613 6.65003C196.613 5.09519 197.846 3.82422 199.4 3.82422C200.955 3.82422 202.194 5.08874 202.194 6.65003Z" fill="#212121"/>
</g>
</g>
<defs>
<clipPath id="clip0_3634_17416">
<rect width="202.194" height="48" fill="white"/>
</clipPath>
</defs>
</svg>
