<svg width="149" height="175" viewBox="0 0 149 175" fill="none" xmlns="http://www.w3.org/2000/svg">
<path d="M125.088 16.9144C123.729 11.6799 119.64 7.57796 114.393 6.21903C82.4328 -2.07301 48.8746 -2.07301 16.9144 6.21903C11.6799 7.57796 7.57797 11.6674 6.21903 16.9144C-2.07301 48.8746 -2.07301 82.4327 6.21903 114.393C7.57797 119.627 11.6674 123.729 16.9144 125.088C48.8746 133.38 82.4328 133.38 114.393 125.088C119.627 123.729 123.729 119.64 125.088 114.393C133.38 82.4327 133.38 48.8746 125.088 16.9144ZM117.69 88.9758C117.69 93.1281 115.475 96.9659 111.876 99.042L71.4732 122.37C67.8745 124.447 63.4454 124.447 59.8467 122.37L19.4435 99.042C15.8448 96.9659 13.6303 93.1281 13.6303 88.9758V42.319C13.6303 38.1666 15.8448 34.3289 19.4435 32.2528L59.8467 8.92435C63.4454 6.8482 67.8745 6.8482 71.4732 8.92435L111.876 32.2528C115.475 34.3289 117.69 38.1666 117.69 42.319V88.9758Z" fill="#0E0405"/>
<path d="M140.188 148.454C137.86 148.454 135.671 147.561 133.997 145.875C131.908 143.786 131.028 140.892 131.594 137.947C132.248 134.475 135.029 131.706 138.502 131.04C141.446 130.486 144.34 131.354 146.429 133.455C148.518 135.544 149.398 138.438 148.832 141.383C148.178 144.855 145.397 147.624 141.924 148.29C141.345 148.404 140.767 148.454 140.188 148.454ZM132.248 138.073C131.732 140.804 132.537 143.471 134.475 145.409C136.413 147.334 139.081 148.152 141.811 147.636C145.007 147.032 147.574 144.465 148.178 141.269C148.694 138.539 147.888 135.871 145.951 133.934C144.013 132.008 141.345 131.191 138.628 131.706C135.419 132.31 132.865 134.877 132.261 138.073" fill="#020102"/>
<path d="M140.113 140.716H138.364V144.201H136.791V135.142H139.974C141.019 135.142 141.824 135.381 142.39 135.846C142.957 136.312 143.246 136.991 143.246 137.885C143.246 138.489 143.095 139.004 142.806 139.407C142.516 139.81 142.101 140.124 141.585 140.351L143.623 144.126V144.201H141.937L140.125 140.716H140.113ZM138.364 139.445H139.987C140.515 139.445 140.931 139.306 141.233 139.042C141.535 138.778 141.686 138.413 141.686 137.948C141.686 137.482 141.547 137.092 141.27 136.828C140.994 136.563 140.578 136.425 140.037 136.412H138.376V139.445H138.364Z" fill="#020102"/>
<path d="M33.1968 149.738C32.6935 149.386 32.1021 149.21 31.4227 149.21C30.8313 149.21 30.3406 149.323 29.9253 149.537C29.5101 149.763 29.1704 150.053 28.8935 150.418C28.6293 150.795 28.428 151.21 28.3021 151.689C28.1763 152.167 28.1134 152.657 28.1134 153.173C28.1134 153.727 28.1763 154.255 28.3021 154.759C28.428 155.262 28.6293 155.69 28.8935 156.067C29.1578 156.445 29.5101 156.734 29.9253 156.948C30.3406 157.175 30.8439 157.275 31.4353 157.275C31.8631 157.275 32.2406 157.2 32.5803 157.061C32.92 156.923 33.1968 156.722 33.4485 156.47C33.6876 156.218 33.8763 155.916 34.0147 155.577C34.1531 155.224 34.2286 154.847 34.2664 154.444H35.575C35.4491 155.677 35.0213 156.646 34.3041 157.326C33.5869 158.005 32.5929 158.357 31.3346 158.357C30.5796 158.357 29.9127 158.232 29.3465 157.967C28.7803 157.703 28.3021 157.351 27.9372 156.885C27.5598 156.432 27.2829 155.891 27.0942 155.262C26.9055 154.646 26.8174 153.966 26.8174 153.261C26.8174 152.557 26.918 151.877 27.1194 151.248C27.3207 150.619 27.6101 150.078 28.0001 149.612C28.3902 149.147 28.8684 148.782 29.4598 148.505C30.0386 148.241 30.7054 148.103 31.4604 148.103C31.9763 148.103 32.4544 148.178 32.92 148.316C33.373 148.455 33.7882 148.656 34.1405 148.92C34.4929 149.185 34.7948 149.512 35.0339 149.914C35.273 150.317 35.424 150.77 35.4995 151.299H34.1909C34.0399 150.606 33.7253 150.078 33.222 149.738" fill="#060303"/>
<path d="M38.6319 148.354V152.569H43.7908V148.354H45.0994V158.155H43.7908V153.663H38.6319V158.155H37.3232V148.354H38.6319Z" fill="#060303"/>
<path d="M54.1465 148.354V149.448H48.673V152.569H53.769V153.663H48.673V157.061H54.1842V158.155H47.377V148.354H54.1465Z" fill="#060303"/>
<path d="M57.7086 148.354L60.804 156.595L63.9119 148.354H65.6861V158.155H64.453V150.002H64.4278L61.3702 158.155H60.2503L57.1927 150.002H57.1676V158.155H55.9219V148.354H57.7086Z" fill="#060303"/>
<path d="M69.3584 148.354H68.0498V158.155H69.3584V148.354Z" fill="#060303"/>
<path d="M76.5935 149.688C76.1531 149.373 75.5995 149.209 74.92 149.209C74.6432 149.209 74.3789 149.235 74.1147 149.298C73.8505 149.348 73.6114 149.448 73.4101 149.574C73.2087 149.7 73.0452 149.876 72.9193 150.09C72.7935 150.304 72.7306 150.568 72.7306 150.895C72.7306 151.197 72.8187 151.437 72.9948 151.625C73.171 151.814 73.4101 151.965 73.712 152.091C74.014 152.217 74.3412 152.305 74.7187 152.393C75.0961 152.468 75.4736 152.556 75.8637 152.645C76.2538 152.733 76.6313 152.846 77.0087 152.972C77.3862 153.097 77.7259 153.261 78.0153 153.475C78.3173 153.689 78.5564 153.953 78.7326 154.268C78.9087 154.582 78.9968 154.985 78.9968 155.476C78.9968 156.004 78.8836 156.444 78.6445 156.809C78.418 157.174 78.116 157.489 77.7511 157.715C77.3862 157.942 76.971 158.118 76.518 158.219C76.065 158.319 75.612 158.37 75.1716 158.37C74.618 158.37 74.1021 158.307 73.6114 158.168C73.1207 158.03 72.6928 157.829 72.3154 157.539C71.9505 157.262 71.6485 156.91 71.4346 156.47C71.2207 156.029 71.1074 155.526 71.1074 154.922H72.3405C72.3405 155.337 72.416 155.69 72.5796 155.992C72.7432 156.294 72.9445 156.533 73.2087 156.721C73.473 156.91 73.775 157.061 74.1273 157.149C74.4796 157.237 74.8319 157.288 75.1968 157.288C75.4862 157.288 75.7882 157.262 76.0776 157.199C76.3796 157.149 76.6438 157.049 76.8829 156.923C77.122 156.797 77.3107 156.608 77.4617 156.382C77.6127 156.155 77.6756 155.853 77.6756 155.501C77.6756 155.161 77.5875 154.884 77.4114 154.683C77.2352 154.469 76.9962 154.305 76.6942 154.167C76.3922 154.029 76.065 153.928 75.6875 153.84C75.3101 153.752 74.9326 153.676 74.5425 153.588C74.1524 153.5 73.775 153.399 73.3975 153.286C73.02 153.173 72.6803 153.022 72.3909 152.833C72.0889 152.645 71.8498 152.405 71.6736 152.103C71.4975 151.801 71.4094 151.437 71.4094 150.984C71.4094 150.493 71.5101 150.065 71.7114 149.7C71.9127 149.335 72.1769 149.046 72.5167 148.807C72.8438 148.58 73.2339 148.404 73.6617 148.291C74.0895 148.178 74.5299 148.115 74.9703 148.115C75.4736 148.115 75.9392 148.178 76.367 148.291C76.7948 148.404 77.1723 148.593 77.4995 148.857C77.8266 149.109 78.0783 149.436 78.267 149.826C78.4558 150.216 78.5564 150.682 78.5816 151.223H77.3485C77.273 150.518 77.0213 150.002 76.5809 149.688" fill="#060303"/>
<path d="M79.6768 149.448V148.354H87.5158V149.448H84.2569V158.155H82.9483V149.448H79.6768Z" fill="#060303"/>
<path d="M95.5069 148.354V149.448H90.046V152.569H95.142V153.663H90.046V157.061H95.5573V158.155H88.75V148.354H95.5069Z" fill="#060303"/>
<path d="M101.32 158.155H100.011V154.142L96.2236 148.354H97.7839L100.716 153.022L103.585 148.354H105.069L101.32 154.142V158.155Z" fill="#060303"/>
<path d="M13.9193 167.807C14.1206 167.19 14.41 166.637 14.8001 166.171C15.1902 165.693 15.6809 165.315 16.2723 165.026C16.8637 164.737 17.5431 164.598 18.3233 164.598C19.1034 164.598 19.7829 164.737 20.3742 165.026C20.9656 165.315 21.4564 165.693 21.8464 166.171C22.2365 166.649 22.5385 167.19 22.7272 167.807C22.9286 168.423 23.0292 169.065 23.0292 169.732C23.0292 170.399 22.9286 171.04 22.7272 171.657C22.5259 172.274 22.2365 172.827 21.8464 173.293C21.4564 173.771 20.9656 174.148 20.3742 174.425C19.7829 174.702 19.1034 174.841 18.3233 174.841C17.5431 174.841 16.8637 174.702 16.2723 174.425C15.6809 174.148 15.2027 173.771 14.8001 173.293C14.41 172.815 14.108 172.274 13.9193 171.657C13.718 171.04 13.6299 170.399 13.6299 169.732C13.6299 169.065 13.7306 168.423 13.9193 167.807ZM15.1272 171.204C15.2531 171.682 15.4544 172.123 15.7312 172.5C16.008 172.89 16.3604 173.192 16.7882 173.431C17.216 173.67 17.7319 173.784 18.3233 173.784C18.9147 173.784 19.4305 173.67 19.8584 173.431C20.2862 173.205 20.6385 172.89 20.9153 172.5C21.1921 172.123 21.3934 171.682 21.5193 171.204C21.6451 170.726 21.708 170.235 21.708 169.745C21.708 169.254 21.6451 168.763 21.5193 168.285C21.3934 167.807 21.1921 167.366 20.9153 166.989C20.6385 166.599 20.2862 166.297 19.8584 166.058C19.4305 165.819 18.9147 165.705 18.3233 165.705C17.7319 165.705 17.216 165.819 16.7882 166.058C16.3604 166.284 16.008 166.599 15.7312 166.989C15.4544 167.366 15.2531 167.807 15.1272 168.285C15.0014 168.763 14.9385 169.254 14.9385 169.745C14.9385 170.235 15.0014 170.726 15.1272 171.204Z" fill="#060303"/>
<path d="M31.1709 164.825V165.932H26.0371V169.04H30.5417V170.147H26.0371V174.627H24.7285V164.825H31.1709Z" fill="#060303"/>
<path d="M38.0784 164.825L43.2374 172.777H43.2751V164.825H44.5082V174.627H43.0738L37.9526 166.763H37.9275V174.627H36.6943V164.825H38.0784Z" fill="#060303"/>
<path d="M53.582 173.91C52.9151 174.539 51.9588 174.853 50.7257 174.853C49.4926 174.853 48.4734 174.551 47.7688 173.96C47.0641 173.356 46.6992 172.412 46.6992 171.104V164.837H48.0078V171.104C48.0078 171.984 48.2469 172.651 48.7125 173.104C49.178 173.557 49.8575 173.784 50.7257 173.784C51.5939 173.784 52.1979 173.557 52.6257 173.104C53.0661 172.651 53.28 171.984 53.28 171.104V164.837H54.5886V171.104C54.5886 172.362 54.2615 173.293 53.582 173.922" fill="#060303"/>
<path d="M55.7578 165.932V164.825H63.6094V165.932H60.3379V174.627H59.0293V165.932H55.7578Z" fill="#060303"/>
<path d="M69.4343 164.825C70.3654 164.825 71.0952 165.051 71.6237 165.517C72.1522 165.97 72.4164 166.599 72.4164 167.404C72.4164 167.996 72.278 168.524 72.0137 168.964C71.7495 169.417 71.3091 169.719 70.7177 169.883V169.908C71.0071 169.959 71.2336 170.059 71.4098 170.185C71.5859 170.311 71.7243 170.462 71.8376 170.651C71.9382 170.827 72.0263 171.028 72.0767 171.242C72.127 171.456 72.1647 171.695 72.1899 171.934C72.2025 172.173 72.2276 172.412 72.2276 172.664C72.2276 172.915 72.2654 173.154 72.3031 173.394C72.3409 173.633 72.3912 173.859 72.4541 174.073C72.5296 174.287 72.6303 174.476 72.7687 174.639H71.3091C71.221 174.539 71.1581 174.4 71.1204 174.224C71.0826 174.048 71.07 173.859 71.0574 173.645C71.0449 173.431 71.0449 173.192 71.0323 172.953C71.0323 172.702 70.9945 172.462 70.9442 172.223C70.9065 171.984 70.8561 171.758 70.8058 171.544C70.7555 171.33 70.6674 171.141 70.5416 170.978C70.4283 170.814 70.2647 170.688 70.076 170.588C69.8872 170.487 69.623 170.449 69.3084 170.449H66.125V174.639H64.8164V164.837H69.4343V164.825ZM69.7111 169.279C69.9879 169.229 70.227 169.141 70.4283 169.015C70.6296 168.889 70.7932 168.7 70.919 168.474C71.0449 168.247 71.1078 167.958 71.1078 167.606C71.1078 167.115 70.9694 166.712 70.6926 166.398C70.4157 166.083 69.9753 165.932 69.3588 165.932H66.1124V169.355H68.8303C69.1323 169.355 69.4217 169.329 69.6985 169.279" fill="#060303"/>
<path d="M75.7139 164.825H74.4053V174.627H75.7139V164.825Z" fill="#060303"/>
<path d="M77.0107 165.932V164.825H84.8498V165.932H81.5783V174.627H80.2697V165.932H77.0107Z" fill="#060303"/>
<path d="M87.4297 164.825H86.1211V174.627H87.4297V164.825Z" fill="#060303"/>
<path d="M89.5042 167.807C89.7056 167.19 89.995 166.637 90.385 166.171C90.7751 165.693 91.2658 165.315 91.8572 165.026C92.4486 164.737 93.1281 164.598 93.9082 164.598C94.6883 164.598 95.3678 164.737 95.9592 165.026C96.5506 165.315 97.0413 165.693 97.4314 166.171C97.8214 166.649 98.1234 167.19 98.3122 167.807C98.5135 168.423 98.6142 169.065 98.6142 169.732C98.6142 170.399 98.5135 171.04 98.3122 171.657C98.1108 172.274 97.8214 172.827 97.4314 173.293C97.0413 173.771 96.5506 174.148 95.9592 174.425C95.3678 174.702 94.6883 174.841 93.9082 174.841C93.1281 174.841 92.4486 174.702 91.8572 174.425C91.2658 174.148 90.7877 173.771 90.385 173.293C89.995 172.815 89.693 172.274 89.5042 171.657C89.3029 171.04 89.2148 170.399 89.2148 169.732C89.2148 169.065 89.3155 168.423 89.5042 167.807ZM90.7122 171.204C90.838 171.682 91.0393 172.123 91.3162 172.5C91.593 172.89 91.9453 173.192 92.3731 173.431C92.8009 173.67 93.3168 173.784 93.9082 173.784C94.4996 173.784 95.0155 173.67 95.4433 173.431C95.8711 173.205 96.2234 172.89 96.5003 172.5C96.7771 172.123 96.9784 171.682 97.1042 171.204C97.2301 170.726 97.293 170.235 97.293 169.745C97.293 169.254 97.2301 168.763 97.1042 168.285C96.9784 167.807 96.7771 167.366 96.5003 166.989C96.2234 166.599 95.8711 166.297 95.4433 166.058C95.0155 165.819 94.4996 165.705 93.9082 165.705C93.3168 165.705 92.8009 165.819 92.3731 166.058C91.9453 166.284 91.593 166.599 91.3162 166.989C91.0393 167.366 90.838 167.807 90.7122 168.285C90.5864 168.763 90.5234 169.254 90.5234 169.745C90.5234 170.235 90.5864 170.726 90.7122 171.204Z" fill="#060303"/>
<path d="M101.697 164.825L106.856 172.777H106.882V164.825H108.115V174.627H106.693L101.572 166.763H101.534V174.627H100.301V164.825H101.697Z" fill="#060303"/>
</svg>
