<svg width="64" height="32" viewBox="0 0 64 32" fill="none" xmlns="http://www.w3.org/2000/svg">
<rect x="0.5" y="0.5" width="63" height="31" rx="1.5" stroke="#212121"/>
<path d="M27.5892 25.5406L27.354 25.5086C27.137 25.4811 26.9651 25.4353 26.9651 25.2795C26.9651 25.1237 27.1279 25.0046 27.4173 25.0046C27.6811 25.0095 27.9268 25.0838 28.1388 25.2099L28.1318 25.2061L28.3489 24.7984C28.0982 24.6451 27.7955 24.5545 27.4718 24.5545C27.4511 24.5545 27.4304 24.5549 27.4099 24.5556L27.4128 24.5555C26.8294 24.5555 26.4586 24.8396 26.4586 25.3023C26.4586 25.6827 26.739 25.9163 27.25 25.9896L27.4852 26.0217C27.7611 26.0584 27.8877 26.1317 27.8877 26.2645C27.8877 26.3974 27.7068 26.5486 27.3631 26.5486C27.3478 26.5493 27.3298 26.5497 27.3118 26.5497C27.0344 26.5497 26.7786 26.4563 26.5732 26.2989L26.5762 26.3012L26.3411 26.6952C26.6056 26.8848 26.9348 26.9983 27.2901 26.9983C27.3062 26.9983 27.3223 26.9981 27.3383 26.9977H27.336C28.0007 26.9977 28.3851 26.6815 28.3851 26.2371C28.3851 25.7926 28.0912 25.6231 27.5892 25.5406L27.5892 25.5406ZM30.0312 26.5166C29.7825 26.5166 29.7011 26.3608 29.7011 26.1271V25.0733H30.5196V24.6151H29.7011V23.9049H29.1946V24.6105H28.7424V25.0687H29.1946V26.1317C29.1946 26.6724 29.4026 26.9931 29.9905 26.9931H29.9952C30.2245 26.9931 30.4386 26.9266 30.6195 26.8115L30.6145 26.8144L30.4698 26.3791C30.345 26.459 30.1945 26.5092 30.0331 26.5165L30.0312 26.5166L30.0312 26.5166ZM22.1444 24.5555C22.1299 24.5547 22.1128 24.5542 22.0957 24.5542C21.7808 24.5542 21.5035 24.7172 21.3415 24.9645L21.3394 24.9679C21.1886 24.7186 20.9212 24.5547 20.616 24.5547C20.6032 24.5547 20.5905 24.555 20.5779 24.5556L20.5797 24.5555C20.5676 24.5548 20.5535 24.5544 20.5393 24.5544C20.276 24.5544 20.0439 24.6902 19.9076 24.8964L19.9059 24.8991V24.6105H19.4084V26.9381H19.9149V25.6505C19.9117 25.6283 19.9099 25.6027 19.9099 25.5765C19.9099 25.2754 20.1508 25.0313 20.4481 25.0313C20.4578 25.0313 20.4674 25.0315 20.477 25.0321L20.4757 25.032C20.8058 25.032 20.9776 25.2519 20.9776 25.646V26.9426H21.4841V25.6505C21.4813 25.6296 21.4798 25.6054 21.4798 25.5809C21.4798 25.2772 21.7227 25.0311 22.0224 25.0311C22.0335 25.0311 22.0445 25.0314 22.0554 25.0321L22.0539 25.032C22.3931 25.032 22.5604 25.2519 22.5604 25.646V26.9427H23.0488V25.4811C23.0502 25.4627 23.051 25.4414 23.051 25.4199C23.051 24.9416 22.6683 24.5539 22.1963 24.5539C22.178 24.5539 22.1599 24.5545 22.142 24.5556L22.1444 24.5555L22.1444 24.5555ZM25.3642 24.8946C25.2031 24.6869 24.955 24.5547 24.6765 24.5547C24.6639 24.5547 24.6514 24.555 24.6389 24.5556L24.6406 24.5555C24.0064 24.5961 23.5071 25.1273 23.5071 25.7766C23.5071 26.426 24.0063 26.9571 24.6371 26.9975L24.6406 26.9977C24.6513 26.9981 24.6639 26.9984 24.6765 26.9984C24.9549 26.9984 25.2029 26.8663 25.3627 26.6605L25.3642 26.6586V26.9427H25.8662V24.6105H25.3642L25.3642 24.8946ZM24.704 26.5395C24.6905 26.5404 24.6747 26.5409 24.6588 26.5409C24.2517 26.5409 23.9217 26.2065 23.9217 25.7941C23.9217 25.3816 24.2517 25.0472 24.6588 25.0472C25.0654 25.0472 25.3951 25.3808 25.3959 25.7926V25.7926C25.397 25.8077 25.3977 25.8253 25.3977 25.8431C25.3977 26.2277 25.0899 26.5395 24.7103 26.5395C24.7081 26.5395 24.7059 26.5395 24.7036 26.5395H24.704H24.704ZM41.1152 24.8946V24.6105H40.6223V26.9381H41.1197V25.6231C41.1197 25.2382 41.2825 25.0228 41.6081 25.0228H41.6163C41.7258 25.0228 41.8302 25.0447 41.9255 25.0844L41.9201 25.0824L42.0739 24.6242C41.9676 24.5842 41.8449 24.5607 41.7169 24.5601H41.7166C41.7109 24.5599 41.7042 24.5598 41.6975 24.5598C41.4512 24.5598 41.2357 24.6927 41.1168 24.8915L41.1151 24.8946H41.1152ZM32.0707 24.5555C31.4436 24.6043 30.953 25.1318 30.953 25.7755C30.953 26.4321 31.4635 26.9678 32.1043 26.9976L32.1069 26.9977C32.1213 26.9982 32.1382 26.9985 32.1553 26.9985C32.4956 26.9985 32.8074 26.8753 33.0497 26.6705L33.0475 26.6723L32.8033 26.2966C32.6214 26.445 32.3885 26.536 32.1348 26.5395H32.134C32.1178 26.5409 32.0989 26.5418 32.0799 26.5418C31.754 26.5418 31.4852 26.2941 31.4469 25.9744L31.4466 25.9713H33.1515V25.7743C33.1544 25.744 33.156 25.7089 33.156 25.6733C33.156 25.0624 32.6722 24.5658 32.0716 24.5555L32.0707 24.5555L32.0707 24.5555ZM31.4512 25.5727C31.4706 25.2572 31.7279 25.0088 32.0425 25.0088C32.0492 25.0088 32.056 25.0089 32.0626 25.0091H32.0617C32.0657 25.009 32.0706 25.009 32.0754 25.009C32.3854 25.009 32.6375 25.2597 32.645 25.572L32.6451 25.5727L31.4512 25.5727ZM39.46 24.8946C39.2988 24.6869 39.0508 24.5547 38.7723 24.5547C38.7597 24.5547 38.7472 24.555 38.7347 24.5555L38.7365 24.5555C38.1022 24.5961 37.6029 25.1273 37.6029 25.7766C37.6029 26.4259 38.1022 26.9571 38.733 26.9975L38.7365 26.9977C38.7472 26.9981 38.7597 26.9984 38.7723 26.9984C39.0507 26.9984 39.2988 26.8662 39.4586 26.6604L39.46 26.6586V26.9426H39.9574V24.6105H39.46L39.46 24.8946ZM38.7862 26.5395C38.7727 26.5404 38.7569 26.5409 38.741 26.5409C38.3339 26.5409 38.0039 26.2065 38.0039 25.794C38.0039 25.3816 38.3339 25.0472 38.741 25.0472C39.1476 25.0472 39.4774 25.3808 39.4781 25.7926V25.7926C39.4793 25.8077 39.4799 25.8253 39.4799 25.843C39.4799 26.2276 39.1722 26.5395 38.7926 26.5395C38.7903 26.5395 38.7881 26.5395 38.7859 26.5395H38.7862ZM44.0999 24.8946C43.9387 24.6869 43.6906 24.5547 43.4121 24.5547C43.3996 24.5547 43.387 24.555 43.3745 24.5555L43.3763 24.5555C42.742 24.5961 42.2427 25.1273 42.2427 25.7766C42.2427 26.4259 42.742 26.9571 43.3728 26.9975L43.3763 26.9977C43.387 26.9981 43.3996 26.9984 43.4122 26.9984C43.6906 26.9984 43.9387 26.8662 44.0985 26.6604L44.0999 26.6586V26.9426H44.6018V23.6758H44.0999V24.8946ZM43.4351 26.5395C43.4216 26.5404 43.4058 26.5409 43.3899 26.5409C42.9828 26.5409 42.6528 26.2065 42.6528 25.794C42.6528 25.3816 42.9828 25.0472 43.3899 25.0472C43.7965 25.0472 44.1262 25.3808 44.127 25.7926V25.7926C44.1281 25.8077 44.1288 25.8253 44.1288 25.843C44.1288 26.2276 43.8211 26.5395 43.4414 26.5395C43.4392 26.5395 43.437 26.5395 43.4347 26.5395H43.4351ZM34.1736 24.8946V24.6105H33.6761V26.9381H34.1736V25.6231C34.1736 25.2382 34.3364 25.0228 34.6619 25.0228H34.6701C34.7796 25.0228 34.884 25.0447 34.9794 25.0844L34.974 25.0824L35.1277 24.6242C35.0215 24.5841 34.8988 24.5606 34.7707 24.56H34.7705C34.7661 24.5599 34.7609 24.5599 34.7558 24.5599C34.5096 24.5599 34.2941 24.6927 34.1752 24.8914L34.1735 24.8945L34.1736 24.8946ZM36.4935 25.032C36.7211 25.0349 36.93 25.1137 37.0972 25.2446L37.0949 25.2428L37.3346 24.835C37.128 24.6606 36.8598 24.5548 36.5672 24.5548C36.5524 24.5548 36.5376 24.555 36.523 24.5556L36.5251 24.5555C36.503 24.5541 36.4772 24.5532 36.4512 24.5532C35.7844 24.5532 35.2438 25.101 35.2438 25.7766C35.2438 26.4523 35.7844 27 36.4512 27C36.4772 27 36.503 26.9992 36.5286 26.9975L36.5251 26.9977C36.5427 26.9987 36.5635 26.9992 36.5843 26.9992C36.8773 26.9992 37.1458 26.8931 37.3545 26.7166L37.3526 26.7182L37.1129 26.3104C36.948 26.4395 36.7391 26.5184 36.5121 26.5212H36.5115C36.13 26.49 35.8321 26.1685 35.8321 25.7766C35.8321 25.3847 36.13 25.0633 36.5088 25.0323L36.5115 25.0321L36.4935 25.032ZM26.6576 22.5303H26.6828C28.6999 22.5303 30.5546 21.8261 32.0206 20.6471L32.0029 20.6609C33.4592 21.8291 35.3227 22.5349 37.3489 22.5349C42.1268 22.5349 46 18.6105 46 13.7697C46 8.92881 42.1268 5.00456 37.349 5.00456C35.3228 5.00456 33.4592 5.71037 31.9848 6.89259L32.0029 6.87856C30.5455 5.70758 28.6798 5 26.6511 5C21.8732 5 18 8.92431 18 13.7652C18 18.606 21.8732 22.5303 26.6511 22.5303H26.658H26.6576L26.6576 22.5303Z" fill="#212121"/>
</svg>
