<svg width="20" height="20" viewBox="0 0 20 20" fill="none" xmlns="http://www.w3.org/2000/svg">
<g id="vuesax/linear/star">
<g id="star">
<path id="Vector" d="M11.444 2.92031L12.9107 5.85365C13.1107 6.26198 13.644 6.65365 14.094 6.72865L16.7524 7.17031C18.4524 7.45365 18.8524 8.68698 17.6274 9.90365L15.5607 11.9703C15.2107 12.3203 15.019 12.9953 15.1274 13.4786L15.719 16.037C16.1857 18.062 15.1107 18.8453 13.319 17.787L10.8274 16.312C10.3774 16.0453 9.6357 16.0453 9.17737 16.312L6.6857 17.787C4.90237 18.8453 3.81903 18.0536 4.2857 16.037L4.87737 13.4786C4.9857 12.9953 4.79403 12.3203 4.44403 11.9703L2.37737 9.90365C1.1607 8.68698 1.55237 7.45365 3.25237 7.17031L5.9107 6.72865C6.35237 6.65365 6.8857 6.26198 7.0857 5.85365L8.55237 2.92031C9.35237 1.32865 10.6524 1.32865 11.444 2.92031Z" fill="#FE5000"/>
</g>
</g>
</svg>
