<svg width="47" height="47" viewBox="0 0 47 47" fill="none" xmlns="http://www.w3.org/2000/svg">
<rect x="3.61328" y="3.5" width="40" height="40" rx="20" fill="#D1FADF"/>
<path d="M21.1136 23.5013L22.7803 25.168L26.5303 21.418M19.7251 16.6835C20.3949 16.6301 21.0309 16.3667 21.5423 15.9308C22.7359 14.9137 24.4913 14.9137 25.6849 15.9308C26.1963 16.3667 26.8323 16.6301 27.5021 16.6835C29.0653 16.8083 30.3066 18.0496 30.4314 19.6128C30.4848 20.2826 30.7482 20.9186 31.1841 21.43C32.2012 22.6236 32.2012 24.379 31.1841 25.5726C30.7482 26.084 30.4848 26.72 30.4314 27.3898C30.3066 28.953 29.0653 30.1943 27.5021 30.3191C26.8323 30.3725 26.1963 30.6359 25.6849 31.0718C24.4913 32.0889 22.7359 32.0889 21.5423 31.0718C21.0309 30.6359 20.3949 30.3725 19.7251 30.3191C18.1619 30.1943 16.9206 28.953 16.7959 27.3898C16.7424 26.72 16.479 26.084 16.0431 25.5726C15.026 24.379 15.026 22.6236 16.0431 21.43C16.479 20.9186 16.7424 20.2826 16.7959 19.6128C16.9206 18.0496 18.1619 16.8083 19.7251 16.6835Z" stroke="#039855" stroke-width="1.66667" stroke-linecap="round" stroke-linejoin="round"/>
<rect x="3.61328" y="3.5" width="40" height="40" rx="20" stroke="#ECFDF3" stroke-width="6"/>
</svg>
