<svg width="16" height="16" viewBox="0 0 16 16" fill="none" xmlns="http://www.w3.org/2000/svg">
<path d="M14.8755 2.37543C14.277 2.7976 13.6143 3.12049 12.913 3.33168C12.5366 2.89887 12.0363 2.59211 11.4799 2.45288C10.9234 2.31365 10.3377 2.34867 9.80179 2.55321C9.2659 2.75774 8.80576 3.12193 8.4836 3.5965C8.16144 4.07107 7.9928 4.63314 8.00049 5.20668V5.83168C6.90213 5.86016 5.81378 5.61656 4.83237 5.12258C3.85095 4.6286 3.00694 3.89957 2.37549 3.00043C2.37549 3.00043 -0.124512 8.62543 5.50049 11.1254C4.21332 11.9992 2.67996 12.4373 1.12549 12.3754C6.75049 15.5004 13.6255 12.3754 13.6255 5.18793C13.6249 5.01383 13.6082 4.84017 13.5755 4.66918C14.2134 4.04011 14.6635 3.24587 14.8755 2.37543Z" fill="#E3DEDC"/>
</svg>
