<svg width="64" height="32" viewBox="0 0 64 32" fill="none" xmlns="http://www.w3.org/2000/svg">
<rect x="0.5" y="0.5" width="63" height="31" rx="1.5" stroke="#212121"/>
<path d="M24.3688 23.8198L26.9986 8.31693H31.2051L28.5733 23.8198H24.3688ZM43.7708 8.65113C42.9376 8.33705 41.6317 8 40.0009 8C35.8442 8 32.9165 10.1027 32.8915 13.1162C32.868 15.3438 34.9818 16.5866 36.5773 17.3281C38.2148 18.0882 38.7651 18.5727 38.7572 19.2512C38.7468 20.2904 37.4497 20.7649 36.2405 20.7649C34.557 20.7649 33.6625 20.53 32.281 19.9514L31.7388 19.705L31.1486 23.1754C32.1311 23.6084 33.9478 23.9831 35.8344 24.0026C40.2562 24.0026 43.1268 21.9239 43.1594 18.7058C43.1751 16.9421 42.0544 15.6002 39.6275 14.4936C38.1572 13.7764 37.2568 13.2979 37.2663 12.5717C37.2663 11.9273 38.0285 11.2382 39.6755 11.2382C41.0509 11.2168 42.0475 11.5181 42.8239 11.8322L43.2008 12.0111L43.7708 8.65113ZM54.5957 8.31669H51.3453C50.3384 8.31669 49.5848 8.59276 49.1427 9.60232L42.8954 23.8096H47.3126C47.3126 23.8096 48.0346 21.8994 48.198 21.4799C48.6807 21.4799 52.9718 21.4865 53.5852 21.4865C53.7111 22.0293 54.097 23.8096 54.097 23.8096H58.0003L54.5957 8.31622V8.31669ZM49.4385 18.3275C49.7865 17.4343 51.1146 13.9937 51.1146 13.9937C51.0898 14.035 51.4599 13.0962 51.6722 12.5141L51.9565 13.8507C51.9565 13.8507 52.762 17.5513 52.9304 18.3273H49.4385V18.3275ZM20.7978 8.31669L16.6795 18.889L16.2408 16.7406C15.474 14.2639 13.0854 11.5806 10.415 10.2372L14.1808 23.7951L18.6314 23.7901L25.2538 8.31654L20.7978 8.31646" fill="#212121"/>
<path d="M12.8368 8.31641H6.05377L6 8.63896C11.2771 9.92221 14.7688 13.0233 16.2186 16.7499L14.7437 9.62571C14.4891 8.64403 13.7506 8.35101 12.837 8.3168" fill="#212121"/>
</svg>
